M48
; DRILL file {KiCad (6.0.4)} date Sun May  1 23:44:33 2022
; FORMAT={-:-/ absolute / metric / decimal}
; #@! TF.CreationDate,2022-05-01T23:44:33+08:00
; #@! TF.GenerationSoftware,Kicad,Pcbnew,(6.0.4)
; #@! TF.FileFunction,NonPlated,1,2,NPTH
FMAT,2
METRIC
; #@! TA.AperFunction,NonPlated,NPTH,ComponentDrill
T1C1.700
; #@! TA.AperFunction,NonPlated,NPTH,ComponentDrill
T2C3.200
; #@! TA.AperFunction,NonPlated,NPTH,ComponentDrill
T3C4.000
%
G90
G05
T1
X57.567Y-96.26
X57.567Y-116.26
X57.567Y-136.34
X57.607Y-156.34
X67.727Y-96.26
X67.727Y-116.26
X67.727Y-136.34
X67.767Y-156.34
X77.567Y-156.34
X77.58Y-96.26
X77.58Y-116.26
X77.607Y-136.26
X87.727Y-156.34
X87.74Y-96.26
X87.74Y-116.26
X87.767Y-136.26
X97.593Y-96.26
X97.593Y-116.26
X97.607Y-136.26
X97.607Y-156.26
X107.753Y-96.26
X107.753Y-116.26
X107.767Y-136.26
X107.767Y-156.26
X117.607Y-96.26
X117.607Y-116.26
X117.607Y-136.26
X117.607Y-156.26
X127.767Y-96.26
X127.767Y-116.26
X127.767Y-136.26
X127.767Y-156.26
T2
X45.61Y-85.4
X45.61Y-165.96
X143.26Y-85.4
X143.26Y-165.96
T3
X62.647Y-96.26
X62.647Y-116.26
X62.647Y-136.34
X62.687Y-156.34
X82.647Y-156.34
X82.66Y-96.26
X82.66Y-116.26
X82.687Y-136.26
X102.673Y-96.26
X102.673Y-116.26
X102.687Y-136.26
X102.687Y-156.26
X122.687Y-96.26
X122.687Y-116.26
X122.687Y-136.26
X122.687Y-156.26
T0
M30
