%TF.GenerationSoftware,KiCad,Pcbnew,(6.0.4)*%
%TF.CreationDate,2022-05-01T23:44:28+08:00*%
%TF.ProjectId,RP2040_16Key_ili9341_LCD_keypad,52503230-3430-45f3-9136-4b65795f696c,rev?*%
%TF.SameCoordinates,Original*%
%TF.FileFunction,Profile,NP*%
%FSLAX46Y46*%
G04 Gerber Fmt 4.6, Leading zero omitted, Abs format (unit mm)*
G04 Created by KiCad (PCBNEW (6.0.4)) date 2022-05-01 23:44:28*
%MOMM*%
%LPD*%
G01*
G04 APERTURE LIST*
%TA.AperFunction,Profile*%
%ADD10C,0.100000*%
%TD*%
G04 APERTURE END LIST*
D10*
X42000000Y-34640000D02*
X147000000Y-34640000D01*
X147000000Y-34640000D02*
X147000000Y-169640000D01*
X147000000Y-169640000D02*
X42000000Y-169640000D01*
X42000000Y-169640000D02*
X42000000Y-34640000D01*
%TO.C,LED8*%
X123481119Y-122839999D02*
X121892215Y-122839999D01*
X121892215Y-119840000D02*
X123481120Y-119840000D01*
X120986668Y-122042841D02*
X120986668Y-120637157D01*
X124386666Y-120637157D02*
X124386666Y-122042841D01*
X124386666Y-122042841D02*
G75*
G03*
X124436151Y-122259719I499990J-2D01*
G01*
X124436152Y-120420279D02*
G75*
G03*
X123733378Y-119771701I-450516J216877D01*
G01*
X121892215Y-122840000D02*
G75*
G03*
X121639957Y-122908298I2J-500010D01*
G01*
X120937187Y-122259721D02*
G75*
G03*
X121639956Y-122908296I450510J-216879D01*
G01*
X120986657Y-120637157D02*
G75*
G03*
X120937183Y-120420279I-500290J-43D01*
G01*
X124436151Y-120420279D02*
G75*
G03*
X124386666Y-120637156I450505J-216876D01*
G01*
X121639956Y-119771700D02*
G75*
G03*
X120937183Y-120420279I-252259J-431700D01*
G01*
X123733378Y-122908298D02*
G75*
G03*
X123481119Y-122839999I-252261J-431710D01*
G01*
X123481120Y-119840000D02*
G75*
G03*
X123733378Y-119771701I-3J500009D01*
G01*
X123733378Y-122908298D02*
G75*
G03*
X124436151Y-122259718I252259J431700D01*
G01*
X121639956Y-119771700D02*
G75*
G03*
X121892214Y-119839999I252261J431710D01*
G01*
X120937183Y-122259719D02*
G75*
G03*
X120986668Y-122042842I-450866J216959D01*
G01*
%TO.C,LED5*%
X60946668Y-122042841D02*
X60946668Y-120637157D01*
X63441119Y-122839999D02*
X61852215Y-122839999D01*
X64346666Y-120637157D02*
X64346666Y-122042841D01*
X61852215Y-119840000D02*
X63441120Y-119840000D01*
X63441120Y-119840000D02*
G75*
G03*
X63693378Y-119771701I-3J500009D01*
G01*
X63693378Y-122908298D02*
G75*
G03*
X63441119Y-122839999I-252261J-431710D01*
G01*
X60897187Y-122259721D02*
G75*
G03*
X61599956Y-122908296I450510J-216879D01*
G01*
X61852215Y-122840000D02*
G75*
G03*
X61599957Y-122908298I2J-500010D01*
G01*
X60897183Y-122259719D02*
G75*
G03*
X60946668Y-122042842I-450386J216849D01*
G01*
X64396152Y-120420279D02*
G75*
G03*
X63693378Y-119771701I-450516J216877D01*
G01*
X63693378Y-122908298D02*
G75*
G03*
X64396151Y-122259718I252259J431700D01*
G01*
X61599956Y-119771700D02*
G75*
G03*
X61852214Y-119839999I252261J431710D01*
G01*
X61599956Y-119771700D02*
G75*
G03*
X60897183Y-120420279I-252259J-431700D01*
G01*
X64346666Y-122042841D02*
G75*
G03*
X64396151Y-122259719I499990J-2D01*
G01*
X64396151Y-120420279D02*
G75*
G03*
X64346666Y-120637156I450505J-216876D01*
G01*
X60946657Y-120637157D02*
G75*
G03*
X60897183Y-120420279I-500290J-43D01*
G01*
%TO.C,LED11*%
X104386666Y-140637157D02*
X104386666Y-142042841D01*
X100986668Y-142042841D02*
X100986668Y-140637157D01*
X101892215Y-139840000D02*
X103481120Y-139840000D01*
X103481119Y-142839999D02*
X101892215Y-142839999D01*
X103481120Y-139840000D02*
G75*
G03*
X103733378Y-139771701I-3J500009D01*
G01*
X103733378Y-142908298D02*
G75*
G03*
X104436151Y-142259718I252259J431700D01*
G01*
X101892215Y-142840000D02*
G75*
G03*
X101639957Y-142908298I2J-500010D01*
G01*
X100937187Y-142259721D02*
G75*
G03*
X101639956Y-142908296I450510J-216879D01*
G01*
X101639956Y-139771700D02*
G75*
G03*
X100937183Y-140420279I-252259J-431700D01*
G01*
X100937183Y-142259719D02*
G75*
G03*
X100986668Y-142042842I-450386J216849D01*
G01*
X104386666Y-142042841D02*
G75*
G03*
X104436151Y-142259719I499990J-2D01*
G01*
X103733378Y-142908298D02*
G75*
G03*
X103481119Y-142839999I-252261J-431710D01*
G01*
X104436152Y-140420279D02*
G75*
G03*
X103733378Y-139771701I-450516J216877D01*
G01*
X100986657Y-140637157D02*
G75*
G03*
X100937183Y-140420279I-500290J-43D01*
G01*
X104436151Y-140420279D02*
G75*
G03*
X104386666Y-140637156I450505J-216876D01*
G01*
X101639956Y-139771700D02*
G75*
G03*
X101892214Y-139839999I252261J431710D01*
G01*
%TO.C,LED6*%
X84359999Y-120637157D02*
X84359999Y-122042841D01*
X80960001Y-122042841D02*
X80960001Y-120637157D01*
X83454452Y-122839999D02*
X81865548Y-122839999D01*
X81865548Y-119840000D02*
X83454453Y-119840000D01*
X80910516Y-122259719D02*
G75*
G03*
X80960001Y-122042842I-450386J216849D01*
G01*
X81613289Y-119771700D02*
G75*
G03*
X80910516Y-120420279I-252259J-431700D01*
G01*
X81613289Y-119771700D02*
G75*
G03*
X81865547Y-119839999I252261J431710D01*
G01*
X80910520Y-122259721D02*
G75*
G03*
X81613289Y-122908296I450510J-216879D01*
G01*
X81865548Y-122840000D02*
G75*
G03*
X81613290Y-122908298I2J-500010D01*
G01*
X84359999Y-122042841D02*
G75*
G03*
X84409484Y-122259719I499990J-2D01*
G01*
X83454453Y-119840000D02*
G75*
G03*
X83706711Y-119771701I-3J500009D01*
G01*
X84409484Y-120420279D02*
G75*
G03*
X84359999Y-120637156I450505J-216876D01*
G01*
X83706711Y-122908298D02*
G75*
G03*
X84409484Y-122259718I252259J431700D01*
G01*
X80959990Y-120637157D02*
G75*
G03*
X80910516Y-120420279I-500290J-43D01*
G01*
X84409485Y-120420279D02*
G75*
G03*
X83706711Y-119771701I-450516J216877D01*
G01*
X83706711Y-122908298D02*
G75*
G03*
X83454452Y-122839999I-252261J-431710D01*
G01*
%TO.C,LED2*%
X80960001Y-102042841D02*
X80960001Y-100637157D01*
X84359999Y-100637157D02*
X84359999Y-102042841D01*
X83454452Y-102839999D02*
X81865548Y-102839999D01*
X81865548Y-99840000D02*
X83454453Y-99840000D01*
X84409485Y-100420279D02*
G75*
G03*
X83706711Y-99771701I-450516J216877D01*
G01*
X83706711Y-102908298D02*
G75*
G03*
X83454452Y-102839999I-252261J-431710D01*
G01*
X81613289Y-99771700D02*
G75*
G03*
X81865547Y-99839999I252261J431710D01*
G01*
X80910516Y-102259719D02*
G75*
G03*
X80960001Y-102042842I-450386J216849D01*
G01*
X81613289Y-99771700D02*
G75*
G03*
X80910516Y-100420279I-252259J-431700D01*
G01*
X80959990Y-100637157D02*
G75*
G03*
X80910516Y-100420279I-500290J-43D01*
G01*
X80910520Y-102259721D02*
G75*
G03*
X81613289Y-102908296I450510J-216879D01*
G01*
X81865548Y-102840000D02*
G75*
G03*
X81613290Y-102908298I2J-500010D01*
G01*
X84359999Y-102042841D02*
G75*
G03*
X84409484Y-102259719I499990J-2D01*
G01*
X83706711Y-102908298D02*
G75*
G03*
X84409484Y-102259718I252259J431700D01*
G01*
X84409484Y-100420279D02*
G75*
G03*
X84359999Y-100637156I450505J-216876D01*
G01*
X83454453Y-99840000D02*
G75*
G03*
X83706711Y-99771701I-3J500009D01*
G01*
%TO.C,LED10*%
X83481119Y-142839999D02*
X81892215Y-142839999D01*
X81892215Y-139840000D02*
X83481120Y-139840000D01*
X80986668Y-142042841D02*
X80986668Y-140637157D01*
X84386666Y-140637157D02*
X84386666Y-142042841D01*
X81892215Y-142840000D02*
G75*
G03*
X81639957Y-142908298I2J-500010D01*
G01*
X83733378Y-142908298D02*
G75*
G03*
X84436151Y-142259718I252259J431700D01*
G01*
X83481120Y-139840000D02*
G75*
G03*
X83733378Y-139771701I-3J500009D01*
G01*
X80937183Y-142259719D02*
G75*
G03*
X80986668Y-142042842I-450386J216849D01*
G01*
X81639956Y-139771700D02*
G75*
G03*
X80937183Y-140420279I-252259J-431700D01*
G01*
X84386666Y-142042841D02*
G75*
G03*
X84436151Y-142259719I499990J-2D01*
G01*
X81639956Y-139771700D02*
G75*
G03*
X81892214Y-139839999I252261J431710D01*
G01*
X80986657Y-140637157D02*
G75*
G03*
X80937183Y-140420279I-500290J-43D01*
G01*
X80937187Y-142259721D02*
G75*
G03*
X81639956Y-142908296I450510J-216879D01*
G01*
X84436151Y-140420279D02*
G75*
G03*
X84386666Y-140637156I450505J-216876D01*
G01*
X84436152Y-140420279D02*
G75*
G03*
X83733378Y-139771701I-450516J216877D01*
G01*
X83733378Y-142908298D02*
G75*
G03*
X83481119Y-142839999I-252261J-431710D01*
G01*
%TO.C,LED1*%
X63441119Y-102839999D02*
X61852215Y-102839999D01*
X64346666Y-100637157D02*
X64346666Y-102042841D01*
X60946668Y-102042841D02*
X60946668Y-100637157D01*
X61852215Y-99840000D02*
X63441120Y-99840000D01*
X64346666Y-102042841D02*
G75*
G03*
X64396151Y-102259719I499990J-2D01*
G01*
X64396151Y-100420279D02*
G75*
G03*
X64346666Y-100637156I450505J-216876D01*
G01*
X64396152Y-100420279D02*
G75*
G03*
X63693378Y-99771701I-450516J216877D01*
G01*
X63693378Y-102908298D02*
G75*
G03*
X63441119Y-102839999I-252261J-431710D01*
G01*
X63441120Y-99840000D02*
G75*
G03*
X63693378Y-99771701I-3J500009D01*
G01*
X60897183Y-102259719D02*
G75*
G03*
X60946668Y-102042842I-450866J216959D01*
G01*
X60946657Y-100637157D02*
G75*
G03*
X60897183Y-100420279I-500290J-43D01*
G01*
X60897187Y-102259721D02*
G75*
G03*
X61599956Y-102908296I450510J-216879D01*
G01*
X61599956Y-99771700D02*
G75*
G03*
X61852214Y-99839999I252261J431710D01*
G01*
X63693378Y-102908298D02*
G75*
G03*
X64396151Y-102259718I252259J431700D01*
G01*
X61852215Y-102840000D02*
G75*
G03*
X61599957Y-102908298I2J-500010D01*
G01*
X61599956Y-99771700D02*
G75*
G03*
X60897183Y-100420279I-252259J-431700D01*
G01*
%TO.C,LED3*%
X104373332Y-100637157D02*
X104373332Y-102042841D01*
X101878881Y-99840000D02*
X103467786Y-99840000D01*
X100973334Y-102042841D02*
X100973334Y-100637157D01*
X103467785Y-102839999D02*
X101878881Y-102839999D01*
X103467786Y-99840000D02*
G75*
G03*
X103720044Y-99771701I-3J500009D01*
G01*
X104373332Y-102042841D02*
G75*
G03*
X104422817Y-102259719I499990J-2D01*
G01*
X100923849Y-102259719D02*
G75*
G03*
X100973334Y-102042842I-450386J216849D01*
G01*
X104422817Y-100420279D02*
G75*
G03*
X104373332Y-100637156I450505J-216876D01*
G01*
X101878881Y-102840000D02*
G75*
G03*
X101626623Y-102908298I2J-500010D01*
G01*
X104422818Y-100420279D02*
G75*
G03*
X103720044Y-99771701I-450516J216877D01*
G01*
X103720044Y-102908298D02*
G75*
G03*
X104422817Y-102259718I252259J431700D01*
G01*
X100923853Y-102259721D02*
G75*
G03*
X101626622Y-102908296I450510J-216879D01*
G01*
X101626622Y-99771700D02*
G75*
G03*
X101878880Y-99839999I252261J431710D01*
G01*
X100973323Y-100637157D02*
G75*
G03*
X100923849Y-100420279I-500290J-43D01*
G01*
X101626622Y-99771700D02*
G75*
G03*
X100923849Y-100420279I-252259J-431700D01*
G01*
X103720044Y-102908298D02*
G75*
G03*
X103467785Y-102839999I-252261J-431710D01*
G01*
%TO.C,LED12*%
X124386666Y-140637157D02*
X124386666Y-142042841D01*
X120986668Y-142042841D02*
X120986668Y-140637157D01*
X121892215Y-139840000D02*
X123481120Y-139840000D01*
X123481119Y-142839999D02*
X121892215Y-142839999D01*
X123481120Y-139840000D02*
G75*
G03*
X123733378Y-139771701I-3J500009D01*
G01*
X123733378Y-142908298D02*
G75*
G03*
X123481119Y-142839999I-252261J-431710D01*
G01*
X120986657Y-140637157D02*
G75*
G03*
X120937183Y-140420279I-500290J-43D01*
G01*
X124436151Y-140420279D02*
G75*
G03*
X124386666Y-140637156I450505J-216876D01*
G01*
X120937187Y-142259721D02*
G75*
G03*
X121639956Y-142908296I450510J-216879D01*
G01*
X121639956Y-139771700D02*
G75*
G03*
X120937183Y-140420279I-252259J-431700D01*
G01*
X123733378Y-142908298D02*
G75*
G03*
X124436151Y-142259718I252259J431700D01*
G01*
X124436152Y-140420279D02*
G75*
G03*
X123733378Y-139771701I-450516J216877D01*
G01*
X121892215Y-142840000D02*
G75*
G03*
X121639957Y-142908298I2J-500010D01*
G01*
X124386666Y-142042841D02*
G75*
G03*
X124436151Y-142259719I499990J-2D01*
G01*
X121639956Y-139771700D02*
G75*
G03*
X121892214Y-139839999I252261J431710D01*
G01*
X120937183Y-142259719D02*
G75*
G03*
X120986668Y-142042842I-450386J216849D01*
G01*
%TO.C,LED14*%
X80946668Y-162122841D02*
X80946668Y-160717157D01*
X83441119Y-162919999D02*
X81852215Y-162919999D01*
X81852215Y-159920000D02*
X83441120Y-159920000D01*
X84346666Y-160717157D02*
X84346666Y-162122841D01*
X81599956Y-159851700D02*
G75*
G03*
X80897183Y-160500279I-252259J-431700D01*
G01*
X83693378Y-162988298D02*
G75*
G03*
X84396151Y-162339718I252259J431700D01*
G01*
X80897183Y-162339719D02*
G75*
G03*
X80946668Y-162122842I-450386J216849D01*
G01*
X84346666Y-162122841D02*
G75*
G03*
X84396151Y-162339719I499990J-2D01*
G01*
X84396151Y-160500279D02*
G75*
G03*
X84346666Y-160717156I450505J-216876D01*
G01*
X83441120Y-159920000D02*
G75*
G03*
X83693378Y-159851701I-3J500009D01*
G01*
X84396152Y-160500279D02*
G75*
G03*
X83693378Y-159851701I-450516J216877D01*
G01*
X83693378Y-162988298D02*
G75*
G03*
X83441119Y-162919999I-252261J-431710D01*
G01*
X81599956Y-159851700D02*
G75*
G03*
X81852214Y-159919999I252261J431710D01*
G01*
X81852215Y-162920000D02*
G75*
G03*
X81599957Y-162988298I2J-500010D01*
G01*
X80897187Y-162339721D02*
G75*
G03*
X81599956Y-162988296I450510J-216879D01*
G01*
X80946657Y-160717157D02*
G75*
G03*
X80897183Y-160500279I-500290J-43D01*
G01*
%TO.C,LED9*%
X60946668Y-142122841D02*
X60946668Y-140717157D01*
X61852215Y-139920000D02*
X63441120Y-139920000D01*
X63441119Y-142919999D02*
X61852215Y-142919999D01*
X64346666Y-140717157D02*
X64346666Y-142122841D01*
X63441120Y-139920000D02*
G75*
G03*
X63693378Y-139851701I-3J500009D01*
G01*
X60897183Y-142339719D02*
G75*
G03*
X60946668Y-142122842I-450386J216849D01*
G01*
X60946657Y-140717157D02*
G75*
G03*
X60897183Y-140500279I-500290J-43D01*
G01*
X61599956Y-139851700D02*
G75*
G03*
X61852214Y-139919999I252261J431710D01*
G01*
X61599956Y-139851700D02*
G75*
G03*
X60897183Y-140500279I-252259J-431700D01*
G01*
X64396151Y-140500279D02*
G75*
G03*
X64346666Y-140717156I450505J-216876D01*
G01*
X63693378Y-142988298D02*
G75*
G03*
X64396151Y-142339718I252259J431700D01*
G01*
X64346666Y-142122841D02*
G75*
G03*
X64396151Y-142339719I499990J-2D01*
G01*
X63693378Y-142988298D02*
G75*
G03*
X63441119Y-142919999I-252261J-431710D01*
G01*
X60897187Y-142339721D02*
G75*
G03*
X61599956Y-142988296I450510J-216879D01*
G01*
X64396152Y-140500279D02*
G75*
G03*
X63693378Y-139851701I-450516J216877D01*
G01*
X61852215Y-142920000D02*
G75*
G03*
X61599957Y-142988298I2J-500010D01*
G01*
%TO.C,LED15*%
X101892215Y-159840000D02*
X103481120Y-159840000D01*
X103481119Y-162839999D02*
X101892215Y-162839999D01*
X104386666Y-160637157D02*
X104386666Y-162042841D01*
X100986668Y-162042841D02*
X100986668Y-160637157D01*
X100937187Y-162259721D02*
G75*
G03*
X101639956Y-162908296I450510J-216879D01*
G01*
X104436151Y-160420279D02*
G75*
G03*
X104386666Y-160637156I450505J-216876D01*
G01*
X104436152Y-160420279D02*
G75*
G03*
X103733378Y-159771701I-450516J216877D01*
G01*
X103481120Y-159840000D02*
G75*
G03*
X103733378Y-159771701I-3J500009D01*
G01*
X104386666Y-162042841D02*
G75*
G03*
X104436151Y-162259719I499990J-2D01*
G01*
X100986657Y-160637157D02*
G75*
G03*
X100937183Y-160420279I-500290J-43D01*
G01*
X101892215Y-162840000D02*
G75*
G03*
X101639957Y-162908298I2J-500010D01*
G01*
X103733378Y-162908298D02*
G75*
G03*
X104436151Y-162259718I252259J431700D01*
G01*
X100937183Y-162259719D02*
G75*
G03*
X100986668Y-162042842I-450386J216849D01*
G01*
X101639956Y-159771700D02*
G75*
G03*
X101892214Y-159839999I252261J431710D01*
G01*
X101639956Y-159771700D02*
G75*
G03*
X100937183Y-160420279I-252259J-431700D01*
G01*
X103733378Y-162908298D02*
G75*
G03*
X103481119Y-162839999I-252261J-431710D01*
G01*
%TO.C,LED13*%
X64386666Y-160717157D02*
X64386666Y-162122841D01*
X61892215Y-159920000D02*
X63481120Y-159920000D01*
X60986668Y-162122841D02*
X60986668Y-160717157D01*
X63481119Y-162919999D02*
X61892215Y-162919999D01*
X61639956Y-159851700D02*
G75*
G03*
X60937183Y-160500279I-252259J-431700D01*
G01*
X61892215Y-162920000D02*
G75*
G03*
X61639957Y-162988298I2J-500010D01*
G01*
X64436151Y-160500279D02*
G75*
G03*
X64386666Y-160717156I450505J-216876D01*
G01*
X64436152Y-160500279D02*
G75*
G03*
X63733378Y-159851701I-450516J216877D01*
G01*
X63733378Y-162988298D02*
G75*
G03*
X64436151Y-162339718I252259J431700D01*
G01*
X63733378Y-162988298D02*
G75*
G03*
X63481119Y-162919999I-252261J-431710D01*
G01*
X61639956Y-159851700D02*
G75*
G03*
X61892214Y-159919999I252261J431710D01*
G01*
X64386666Y-162122841D02*
G75*
G03*
X64436151Y-162339719I499990J-2D01*
G01*
X60937183Y-162339719D02*
G75*
G03*
X60986668Y-162122842I-450386J216849D01*
G01*
X63481120Y-159920000D02*
G75*
G03*
X63733378Y-159851701I-3J500009D01*
G01*
X60937187Y-162339721D02*
G75*
G03*
X61639956Y-162988296I450510J-216879D01*
G01*
X60986657Y-160717157D02*
G75*
G03*
X60937183Y-160500279I-500290J-43D01*
G01*
%TO.C,LED7*%
X101878881Y-119840000D02*
X103467786Y-119840000D01*
X100973334Y-122042841D02*
X100973334Y-120637157D01*
X104373332Y-120637157D02*
X104373332Y-122042841D01*
X103467785Y-122839999D02*
X101878881Y-122839999D01*
X103720044Y-122908298D02*
G75*
G03*
X104422817Y-122259718I252259J431700D01*
G01*
X100923849Y-122259719D02*
G75*
G03*
X100973334Y-122042842I-450386J216849D01*
G01*
X100973323Y-120637157D02*
G75*
G03*
X100923849Y-120420279I-500290J-43D01*
G01*
X103467786Y-119840000D02*
G75*
G03*
X103720044Y-119771701I-3J500009D01*
G01*
X101626622Y-119771700D02*
G75*
G03*
X100923849Y-120420279I-252259J-431700D01*
G01*
X103720044Y-122908298D02*
G75*
G03*
X103467785Y-122839999I-252261J-431710D01*
G01*
X100923853Y-122259721D02*
G75*
G03*
X101626622Y-122908296I450510J-216879D01*
G01*
X101878881Y-122840000D02*
G75*
G03*
X101626623Y-122908298I2J-500010D01*
G01*
X104373332Y-122042841D02*
G75*
G03*
X104422817Y-122259719I499990J-2D01*
G01*
X104422818Y-120420279D02*
G75*
G03*
X103720044Y-119771701I-450516J216877D01*
G01*
X104422817Y-120420279D02*
G75*
G03*
X104373332Y-120637156I450505J-216876D01*
G01*
X101626622Y-119771700D02*
G75*
G03*
X101878880Y-119839999I252261J431710D01*
G01*
%TO.C,LED4*%
X124386666Y-100637157D02*
X124386666Y-102042841D01*
X123481119Y-102839999D02*
X121892215Y-102839999D01*
X120986668Y-102042841D02*
X120986668Y-100637157D01*
X121892215Y-99840000D02*
X123481120Y-99840000D01*
X124436151Y-100420279D02*
G75*
G03*
X124386666Y-100637156I450505J-216876D01*
G01*
X123481120Y-99840000D02*
G75*
G03*
X123733378Y-99771701I-3J500009D01*
G01*
X120937183Y-102259719D02*
G75*
G03*
X120986668Y-102042842I-450386J216849D01*
G01*
X123733378Y-102908298D02*
G75*
G03*
X124436151Y-102259718I252259J431700D01*
G01*
X121639956Y-99771700D02*
G75*
G03*
X120937183Y-100420279I-252259J-431700D01*
G01*
X121892215Y-102840000D02*
G75*
G03*
X121639957Y-102908298I2J-500010D01*
G01*
X120986657Y-100637157D02*
G75*
G03*
X120937183Y-100420279I-500290J-43D01*
G01*
X120937187Y-102259721D02*
G75*
G03*
X121639956Y-102908296I450510J-216879D01*
G01*
X124436152Y-100420279D02*
G75*
G03*
X123733378Y-99771701I-450516J216877D01*
G01*
X124386666Y-102042841D02*
G75*
G03*
X124436151Y-102259719I499990J-2D01*
G01*
X123733378Y-102908298D02*
G75*
G03*
X123481119Y-102839999I-252261J-431710D01*
G01*
X121639956Y-99771700D02*
G75*
G03*
X121892214Y-99839999I252261J431710D01*
G01*
%TO.C,LED16*%
X124386666Y-160637157D02*
X124386666Y-162042841D01*
X121892215Y-159840000D02*
X123481120Y-159840000D01*
X123481119Y-162839999D02*
X121892215Y-162839999D01*
X120986668Y-162042841D02*
X120986668Y-160637157D01*
X121892215Y-162840000D02*
G75*
G03*
X121639957Y-162908298I2J-500010D01*
G01*
X123481120Y-159840000D02*
G75*
G03*
X123733378Y-159771701I-3J500009D01*
G01*
X120986657Y-160637157D02*
G75*
G03*
X120937183Y-160420279I-500290J-43D01*
G01*
X124436152Y-160420279D02*
G75*
G03*
X123733378Y-159771701I-450516J216877D01*
G01*
X124386666Y-162042841D02*
G75*
G03*
X124436151Y-162259719I499990J-2D01*
G01*
X120937187Y-162259721D02*
G75*
G03*
X121639956Y-162908296I450510J-216879D01*
G01*
X123733378Y-162908298D02*
G75*
G03*
X123481119Y-162839999I-252261J-431710D01*
G01*
X121639956Y-159771700D02*
G75*
G03*
X121892214Y-159839999I252261J431710D01*
G01*
X120937183Y-162259719D02*
G75*
G03*
X120986668Y-162042842I-450386J216849D01*
G01*
X123733378Y-162908298D02*
G75*
G03*
X124436151Y-162259718I252259J431700D01*
G01*
X124436151Y-160420279D02*
G75*
G03*
X124386666Y-160637156I450505J-216876D01*
G01*
X121639956Y-159771700D02*
G75*
G03*
X120937183Y-160420279I-252259J-431700D01*
G01*
%TD*%
M02*
