M48
; DRILL file {KiCad (6.0.4)} date Sun May  1 23:44:33 2022
; FORMAT={-:-/ absolute / metric / decimal}
; #@! TF.CreationDate,2022-05-01T23:44:33+08:00
; #@! TF.GenerationSoftware,Kicad,Pcbnew,(6.0.4)
; #@! TF.FileFunction,Plated,1,2,PTH
FMAT,2
METRIC
; #@! TA.AperFunction,Plated,PTH,ViaDrill
T1C0.400
; #@! TA.AperFunction,Plated,PTH,ComponentDrill
T2C0.700
; #@! TA.AperFunction,Plated,PTH,ComponentDrill
T3C0.800
; #@! TA.AperFunction,Plated,PTH,ComponentDrill
T4C1.000
; #@! TA.AperFunction,Plated,PTH,ComponentDrill
T5C1.500
; #@! TA.AperFunction,Plated,PTH,ComponentDrill
T6C3.200
%
G90
G05
T1
X45.87Y-52.53
X46.74Y-64.3
X49.53Y-63.13
X51.32Y-61.2
X51.59Y-89.52
X52.78Y-72.67
X53.89Y-88.73
X55.84Y-83.82
X58.82Y-103.96
X59.26Y-63.16
X59.61Y-60.21
X61.55Y-73.0
X61.66Y-153.77
X61.68Y-133.67
X63.75Y-60.95
X64.24Y-118.77
X64.54Y-66.72
X66.78Y-99.78
X67.73Y-122.08
X68.31Y-102.11
X68.38Y-98.91
X68.41Y-141.49
X68.57Y-67.95
X69.51Y-123.42
X69.51Y-128.99
X69.65Y-103.26
X69.65Y-108.86
X69.8Y-142.75
X69.81Y-148.24
X70.6Y-98.97
X70.76Y-71.12
X70.83Y-69.79
X71.59Y-84.63
X71.59Y-87.22
X73.9Y-147.99
X75.94Y-118.79
X76.0Y-138.58
X76.11Y-158.59
X76.34Y-101.12
X76.42Y-160.71
X76.53Y-120.85
X76.53Y-140.96
X76.56Y-148.22
X76.62Y-107.92
X76.85Y-88.25
X76.88Y-128.17
X79.73Y-98.76
X82.73Y-40.41
X83.01Y-118.91
X83.35Y-138.93
X83.39Y-159.12
X83.77Y-77.44
X83.95Y-128.21
X84.44Y-148.31
X84.64Y-88.38
X84.69Y-108.39
X87.6Y-102.34
X87.62Y-142.6
X87.72Y-122.67
X87.74Y-153.93
X87.89Y-113.52
X88.1Y-133.89
X88.22Y-93.75
X89.59Y-122.57
X89.66Y-128.04
X89.77Y-143.22
X89.81Y-42.3
X89.81Y-148.24
X90.01Y-102.29
X90.03Y-108.69
X91.22Y-80.02
X91.23Y-85.18
X91.26Y-90.79
X93.95Y-148.45
X95.24Y-101.61
X95.68Y-161.12
X95.89Y-139.08
X95.93Y-159.43
X96.14Y-141.15
X96.56Y-118.25
X96.6Y-98.83
X96.77Y-88.16
X96.83Y-148.26
X96.85Y-120.1
X96.98Y-108.02
X97.02Y-128.11
X98.78Y-57.87
X99.78Y-98.52
X100.96Y-59.16
X101.08Y-68.03
X103.25Y-159.02
X103.83Y-138.93
X103.98Y-108.08
X104.05Y-88.16
X104.11Y-118.79
X104.57Y-148.36
X104.82Y-128.15
X106.68Y-65.39
X106.87Y-142.04
X107.62Y-122.68
X107.64Y-153.58
X107.7Y-102.6
X108.23Y-113.86
X108.48Y-67.08
X108.63Y-94.41
X109.03Y-134.94
X110.06Y-108.64
X110.11Y-128.53
X110.12Y-102.73
X110.13Y-123.3
X110.53Y-149.02
X110.54Y-143.1
X110.75Y-84.88
X110.75Y-90.62
X115.79Y-89.68
X115.96Y-158.5
X116.23Y-161.21
X116.52Y-118.71
X116.74Y-128.13
X116.81Y-88.09
X117.02Y-108.08
X117.05Y-120.99
X117.16Y-139.1
X117.18Y-148.22
X117.29Y-141.63
X117.31Y-101.26
X117.49Y-98.96
X117.83Y-64.82
X117.89Y-79.67
X122.61Y-80.5
X122.7Y-74.17
X123.15Y-118.87
X123.38Y-158.83
X123.51Y-139.06
X123.6Y-88.34
X124.22Y-148.22
X124.25Y-98.96
X124.31Y-128.13
X124.4Y-108.11
X127.19Y-142.33
X127.42Y-102.27
X127.59Y-122.64
X128.39Y-142.92
X128.83Y-126.24
X129.18Y-101.66
X130.11Y-81.61
X130.43Y-64.07
X131.51Y-141.47
X131.92Y-59.8
X132.59Y-124.72
X134.12Y-99.03
X134.39Y-85.85
X135.67Y-56.62
X136.59Y-97.53
X137.09Y-61.12
X137.53Y-64.64
X139.59Y-71.25
X139.65Y-58.35
T2
X58.787Y-86.26
X58.787Y-106.26
X58.787Y-126.26
X58.787Y-146.26
X66.587Y-86.26
X66.587Y-106.26
X66.587Y-126.26
X66.587Y-146.26
X78.787Y-86.26
X78.787Y-106.26
X78.787Y-126.26
X78.787Y-146.26
X86.587Y-86.26
X86.587Y-106.26
X86.587Y-126.26
X86.587Y-146.26
X98.787Y-86.26
X98.787Y-106.26
X98.787Y-126.26
X98.787Y-146.26
X106.587Y-86.26
X106.587Y-106.26
X106.587Y-126.26
X106.587Y-146.26
X118.787Y-86.26
X118.787Y-106.26
X118.787Y-126.26
X118.787Y-146.26
X126.587Y-86.26
X126.587Y-106.26
X126.587Y-126.26
X126.587Y-146.26
T3
X48.145Y-37.25
X48.145Y-39.79
X48.145Y-42.33
X48.145Y-44.87
X48.145Y-47.41
X48.145Y-49.95
X48.145Y-52.49
X48.145Y-55.03
X48.145Y-57.57
X50.685Y-57.78
X53.225Y-57.78
X55.765Y-57.78
X58.305Y-57.78
X60.845Y-57.78
X63.385Y-37.25
X63.385Y-39.79
X63.385Y-42.33
X63.385Y-44.87
X63.385Y-47.41
X63.385Y-49.95
X63.385Y-52.49
X63.385Y-55.03
X63.385Y-57.57
T4
X48.78Y-68.64
X48.78Y-73.64
X63.28Y-68.64
X63.28Y-71.14
X63.28Y-73.64
X68.83Y-54.56
X68.83Y-57.1
X68.83Y-59.64
X68.83Y-62.18
X142.01Y-41.86
X142.01Y-44.4
X142.01Y-46.94
X142.01Y-49.48
X142.01Y-52.02
X142.01Y-54.56
X142.01Y-57.1
X142.01Y-59.64
X142.01Y-62.18
X142.01Y-64.63
X142.01Y-67.26
X142.01Y-69.8
X142.01Y-72.34
X142.01Y-74.88
T5
X58.837Y-93.72
X58.837Y-113.72
X58.837Y-133.8
X58.877Y-153.8
X65.187Y-91.18
X65.187Y-111.18
X65.187Y-131.26
X65.227Y-151.26
X78.837Y-153.8
X78.85Y-93.72
X78.85Y-113.72
X78.877Y-133.72
X85.187Y-151.26
X85.2Y-91.18
X85.2Y-111.18
X85.227Y-131.18
X98.863Y-93.72
X98.863Y-113.72
X98.877Y-133.72
X98.877Y-153.72
X105.213Y-91.18
X105.213Y-111.18
X105.227Y-131.18
X105.227Y-151.18
X118.877Y-93.72
X118.877Y-113.72
X118.877Y-133.72
X118.877Y-153.72
X125.227Y-91.18
X125.227Y-111.18
X125.227Y-131.18
X125.227Y-151.18
T6
X69.83Y-40.01
X69.83Y-76.73
X137.09Y-40.01
X137.09Y-76.73
T5
G00X56.43Y-65.54
M15
G01X55.13Y-65.54
M16
G05
G00X56.43Y-76.74
M15
G01X55.13Y-76.74
M16
G05
T0
M30
