%TF.GenerationSoftware,KiCad,Pcbnew,(6.0.4)*%
%TF.CreationDate,2022-05-01T23:44:28+08:00*%
%TF.ProjectId,RP2040_16Key_ili9341_LCD_keypad,52503230-3430-45f3-9136-4b65795f696c,rev?*%
%TF.SameCoordinates,Original*%
%TF.FileFunction,Legend,Top*%
%TF.FilePolarity,Positive*%
%FSLAX46Y46*%
G04 Gerber Fmt 4.6, Leading zero omitted, Abs format (unit mm)*
G04 Created by KiCad (PCBNEW (6.0.4)) date 2022-05-01 23:44:28*
%MOMM*%
%LPD*%
G01*
G04 APERTURE LIST*
%ADD10C,0.150000*%
%ADD11C,0.250000*%
%ADD12C,0.120000*%
%ADD13C,0.200000*%
%ADD14R,1.600000X1.600000*%
%ADD15C,1.600000*%
G04 APERTURE END LIST*
D10*
%TO.C,K4*%
X121948571Y-88838380D02*
X121948571Y-87838380D01*
X122520000Y-88838380D02*
X122091428Y-88266952D01*
X122520000Y-87838380D02*
X121948571Y-88409809D01*
X123377143Y-88171714D02*
X123377143Y-88838380D01*
X123139047Y-87790761D02*
X122900952Y-88505047D01*
X123520000Y-88505047D01*
%TO.C,D7*%
X102096190Y-104696904D02*
X102096190Y-103896904D01*
X102286667Y-103896904D01*
X102400952Y-103935000D01*
X102477143Y-104011190D01*
X102515238Y-104087380D01*
X102553333Y-104239761D01*
X102553333Y-104354047D01*
X102515238Y-104506428D01*
X102477143Y-104582619D01*
X102400952Y-104658809D01*
X102286667Y-104696904D01*
X102096190Y-104696904D01*
X102820000Y-103896904D02*
X103353333Y-103896904D01*
X103010476Y-104696904D01*
%TO.C,D14*%
X81715238Y-144696904D02*
X81715238Y-143896904D01*
X81905714Y-143896904D01*
X82020000Y-143935000D01*
X82096190Y-144011190D01*
X82134286Y-144087380D01*
X82172381Y-144239761D01*
X82172381Y-144354047D01*
X82134286Y-144506428D01*
X82096190Y-144582619D01*
X82020000Y-144658809D01*
X81905714Y-144696904D01*
X81715238Y-144696904D01*
X82934286Y-144696904D02*
X82477143Y-144696904D01*
X82705714Y-144696904D02*
X82705714Y-143896904D01*
X82629524Y-144011190D01*
X82553333Y-144087380D01*
X82477143Y-144125476D01*
X83620000Y-144163571D02*
X83620000Y-144696904D01*
X83429524Y-143858809D02*
X83239047Y-144430238D01*
X83734286Y-144430238D01*
%TO.C,D13*%
X61715238Y-144696904D02*
X61715238Y-143896904D01*
X61905714Y-143896904D01*
X62020000Y-143935000D01*
X62096190Y-144011190D01*
X62134286Y-144087380D01*
X62172381Y-144239761D01*
X62172381Y-144354047D01*
X62134286Y-144506428D01*
X62096190Y-144582619D01*
X62020000Y-144658809D01*
X61905714Y-144696904D01*
X61715238Y-144696904D01*
X62934286Y-144696904D02*
X62477143Y-144696904D01*
X62705714Y-144696904D02*
X62705714Y-143896904D01*
X62629524Y-144011190D01*
X62553333Y-144087380D01*
X62477143Y-144125476D01*
X63200952Y-143896904D02*
X63696190Y-143896904D01*
X63429524Y-144201666D01*
X63543809Y-144201666D01*
X63620000Y-144239761D01*
X63658095Y-144277857D01*
X63696190Y-144354047D01*
X63696190Y-144544523D01*
X63658095Y-144620714D01*
X63620000Y-144658809D01*
X63543809Y-144696904D01*
X63315238Y-144696904D01*
X63239047Y-144658809D01*
X63200952Y-144620714D01*
%TO.C,D10*%
X81715238Y-124696904D02*
X81715238Y-123896904D01*
X81905714Y-123896904D01*
X82020000Y-123935000D01*
X82096190Y-124011190D01*
X82134286Y-124087380D01*
X82172381Y-124239761D01*
X82172381Y-124354047D01*
X82134286Y-124506428D01*
X82096190Y-124582619D01*
X82020000Y-124658809D01*
X81905714Y-124696904D01*
X81715238Y-124696904D01*
X82934286Y-124696904D02*
X82477143Y-124696904D01*
X82705714Y-124696904D02*
X82705714Y-123896904D01*
X82629524Y-124011190D01*
X82553333Y-124087380D01*
X82477143Y-124125476D01*
X83429524Y-123896904D02*
X83505714Y-123896904D01*
X83581905Y-123935000D01*
X83620000Y-123973095D01*
X83658095Y-124049285D01*
X83696190Y-124201666D01*
X83696190Y-124392142D01*
X83658095Y-124544523D01*
X83620000Y-124620714D01*
X83581905Y-124658809D01*
X83505714Y-124696904D01*
X83429524Y-124696904D01*
X83353333Y-124658809D01*
X83315238Y-124620714D01*
X83277143Y-124544523D01*
X83239047Y-124392142D01*
X83239047Y-124201666D01*
X83277143Y-124049285D01*
X83315238Y-123973095D01*
X83353333Y-123935000D01*
X83429524Y-123896904D01*
%TO.C,K8*%
X121741904Y-111402380D02*
X121741904Y-110402380D01*
X122313333Y-111402380D02*
X121884761Y-110830952D01*
X122313333Y-110402380D02*
X121741904Y-110973809D01*
X122884761Y-110830952D02*
X122789523Y-110783333D01*
X122741904Y-110735714D01*
X122694285Y-110640476D01*
X122694285Y-110592857D01*
X122741904Y-110497619D01*
X122789523Y-110450000D01*
X122884761Y-110402380D01*
X123075238Y-110402380D01*
X123170476Y-110450000D01*
X123218095Y-110497619D01*
X123265714Y-110592857D01*
X123265714Y-110640476D01*
X123218095Y-110735714D01*
X123170476Y-110783333D01*
X123075238Y-110830952D01*
X122884761Y-110830952D01*
X122789523Y-110878571D01*
X122741904Y-110926190D01*
X122694285Y-111021428D01*
X122694285Y-111211904D01*
X122741904Y-111307142D01*
X122789523Y-111354761D01*
X122884761Y-111402380D01*
X123075238Y-111402380D01*
X123170476Y-111354761D01*
X123218095Y-111307142D01*
X123265714Y-111211904D01*
X123265714Y-111021428D01*
X123218095Y-110926190D01*
X123170476Y-110878571D01*
X123075238Y-110830952D01*
%TO.C,D4*%
X122096190Y-84696904D02*
X122096190Y-83896904D01*
X122286667Y-83896904D01*
X122400952Y-83935000D01*
X122477143Y-84011190D01*
X122515238Y-84087380D01*
X122553333Y-84239761D01*
X122553333Y-84354047D01*
X122515238Y-84506428D01*
X122477143Y-84582619D01*
X122400952Y-84658809D01*
X122286667Y-84696904D01*
X122096190Y-84696904D01*
X123239047Y-84163571D02*
X123239047Y-84696904D01*
X123048571Y-83858809D02*
X122858095Y-84430238D01*
X123353333Y-84430238D01*
%TO.C,K5*%
X61931904Y-111302380D02*
X61931904Y-110302380D01*
X62503333Y-111302380D02*
X62074761Y-110730952D01*
X62503333Y-110302380D02*
X61931904Y-110873809D01*
X63408095Y-110302380D02*
X62931904Y-110302380D01*
X62884285Y-110778571D01*
X62931904Y-110730952D01*
X63027142Y-110683333D01*
X63265238Y-110683333D01*
X63360476Y-110730952D01*
X63408095Y-110778571D01*
X63455714Y-110873809D01*
X63455714Y-111111904D01*
X63408095Y-111207142D01*
X63360476Y-111254761D01*
X63265238Y-111302380D01*
X63027142Y-111302380D01*
X62931904Y-111254761D01*
X62884285Y-111207142D01*
%TO.C,D9*%
X62096190Y-124696904D02*
X62096190Y-123896904D01*
X62286667Y-123896904D01*
X62400952Y-123935000D01*
X62477143Y-124011190D01*
X62515238Y-124087380D01*
X62553333Y-124239761D01*
X62553333Y-124354047D01*
X62515238Y-124506428D01*
X62477143Y-124582619D01*
X62400952Y-124658809D01*
X62286667Y-124696904D01*
X62096190Y-124696904D01*
X62934286Y-124696904D02*
X63086667Y-124696904D01*
X63162857Y-124658809D01*
X63200952Y-124620714D01*
X63277143Y-124506428D01*
X63315238Y-124354047D01*
X63315238Y-124049285D01*
X63277143Y-123973095D01*
X63239047Y-123935000D01*
X63162857Y-123896904D01*
X63010476Y-123896904D01*
X62934286Y-123935000D01*
X62896190Y-123973095D01*
X62858095Y-124049285D01*
X62858095Y-124239761D01*
X62896190Y-124315952D01*
X62934286Y-124354047D01*
X63010476Y-124392142D01*
X63162857Y-124392142D01*
X63239047Y-124354047D01*
X63277143Y-124315952D01*
X63315238Y-124239761D01*
%TO.C,K11*%
X100925714Y-131332380D02*
X100925714Y-130332380D01*
X101497142Y-131332380D02*
X101068571Y-130760952D01*
X101497142Y-130332380D02*
X100925714Y-130903809D01*
X102449523Y-131332380D02*
X101878095Y-131332380D01*
X102163809Y-131332380D02*
X102163809Y-130332380D01*
X102068571Y-130475238D01*
X101973333Y-130570476D01*
X101878095Y-130618095D01*
X103401904Y-131332380D02*
X102830476Y-131332380D01*
X103116190Y-131332380D02*
X103116190Y-130332380D01*
X103020952Y-130475238D01*
X102925714Y-130570476D01*
X102830476Y-130618095D01*
%TO.C,K3*%
X101935237Y-91222380D02*
X101935237Y-90222380D01*
X102506666Y-91222380D02*
X102078094Y-90650952D01*
X102506666Y-90222380D02*
X101935237Y-90793809D01*
X102839999Y-90222380D02*
X103459047Y-90222380D01*
X103125713Y-90603333D01*
X103268571Y-90603333D01*
X103363809Y-90650952D01*
X103411428Y-90698571D01*
X103459047Y-90793809D01*
X103459047Y-91031904D01*
X103411428Y-91127142D01*
X103363809Y-91174761D01*
X103268571Y-91222380D01*
X102982856Y-91222380D01*
X102887618Y-91174761D01*
X102839999Y-91127142D01*
%TO.C,D12*%
X121715238Y-124696904D02*
X121715238Y-123896904D01*
X121905714Y-123896904D01*
X122020000Y-123935000D01*
X122096190Y-124011190D01*
X122134286Y-124087380D01*
X122172381Y-124239761D01*
X122172381Y-124354047D01*
X122134286Y-124506428D01*
X122096190Y-124582619D01*
X122020000Y-124658809D01*
X121905714Y-124696904D01*
X121715238Y-124696904D01*
X122934286Y-124696904D02*
X122477143Y-124696904D01*
X122705714Y-124696904D02*
X122705714Y-123896904D01*
X122629524Y-124011190D01*
X122553333Y-124087380D01*
X122477143Y-124125476D01*
X123239047Y-123973095D02*
X123277143Y-123935000D01*
X123353333Y-123896904D01*
X123543809Y-123896904D01*
X123620000Y-123935000D01*
X123658095Y-123973095D01*
X123696190Y-124049285D01*
X123696190Y-124125476D01*
X123658095Y-124239761D01*
X123200952Y-124696904D01*
X123696190Y-124696904D01*
%TO.C,K1*%
X61521904Y-91432380D02*
X61521904Y-90432380D01*
X62093333Y-91432380D02*
X61664761Y-90860952D01*
X62093333Y-90432380D02*
X61521904Y-91003809D01*
X63045714Y-91432380D02*
X62474285Y-91432380D01*
X62760000Y-91432380D02*
X62760000Y-90432380D01*
X62664761Y-90575238D01*
X62569523Y-90670476D01*
X62474285Y-90718095D01*
%TO.C,D1*%
X62096190Y-84696904D02*
X62096190Y-83896904D01*
X62286667Y-83896904D01*
X62400952Y-83935000D01*
X62477143Y-84011190D01*
X62515238Y-84087380D01*
X62553333Y-84239761D01*
X62553333Y-84354047D01*
X62515238Y-84506428D01*
X62477143Y-84582619D01*
X62400952Y-84658809D01*
X62286667Y-84696904D01*
X62096190Y-84696904D01*
X63315238Y-84696904D02*
X62858095Y-84696904D01*
X63086667Y-84696904D02*
X63086667Y-83896904D01*
X63010476Y-84011190D01*
X62934286Y-84087380D01*
X62858095Y-84125476D01*
%TO.C,D2*%
X82096190Y-84696904D02*
X82096190Y-83896904D01*
X82286667Y-83896904D01*
X82400952Y-83935000D01*
X82477143Y-84011190D01*
X82515238Y-84087380D01*
X82553333Y-84239761D01*
X82553333Y-84354047D01*
X82515238Y-84506428D01*
X82477143Y-84582619D01*
X82400952Y-84658809D01*
X82286667Y-84696904D01*
X82096190Y-84696904D01*
X82858095Y-83973095D02*
X82896190Y-83935000D01*
X82972381Y-83896904D01*
X83162857Y-83896904D01*
X83239047Y-83935000D01*
X83277143Y-83973095D01*
X83315238Y-84049285D01*
X83315238Y-84125476D01*
X83277143Y-84239761D01*
X82820000Y-84696904D01*
X83315238Y-84696904D01*
%TO.C,D11*%
X101715238Y-124696904D02*
X101715238Y-123896904D01*
X101905714Y-123896904D01*
X102020000Y-123935000D01*
X102096190Y-124011190D01*
X102134286Y-124087380D01*
X102172381Y-124239761D01*
X102172381Y-124354047D01*
X102134286Y-124506428D01*
X102096190Y-124582619D01*
X102020000Y-124658809D01*
X101905714Y-124696904D01*
X101715238Y-124696904D01*
X102934286Y-124696904D02*
X102477143Y-124696904D01*
X102705714Y-124696904D02*
X102705714Y-123896904D01*
X102629524Y-124011190D01*
X102553333Y-124087380D01*
X102477143Y-124125476D01*
X103696190Y-124696904D02*
X103239047Y-124696904D01*
X103467619Y-124696904D02*
X103467619Y-123896904D01*
X103391428Y-124011190D01*
X103315238Y-124087380D01*
X103239047Y-124125476D01*
%TO.C,K10*%
X81015714Y-131272380D02*
X81015714Y-130272380D01*
X81587142Y-131272380D02*
X81158571Y-130700952D01*
X81587142Y-130272380D02*
X81015714Y-130843809D01*
X82539523Y-131272380D02*
X81968095Y-131272380D01*
X82253809Y-131272380D02*
X82253809Y-130272380D01*
X82158571Y-130415238D01*
X82063333Y-130510476D01*
X81968095Y-130558095D01*
X83158571Y-130272380D02*
X83253809Y-130272380D01*
X83349047Y-130320000D01*
X83396666Y-130367619D01*
X83444285Y-130462857D01*
X83491904Y-130653333D01*
X83491904Y-130891428D01*
X83444285Y-131081904D01*
X83396666Y-131177142D01*
X83349047Y-131224761D01*
X83253809Y-131272380D01*
X83158571Y-131272380D01*
X83063333Y-131224761D01*
X83015714Y-131177142D01*
X82968095Y-131081904D01*
X82920476Y-130891428D01*
X82920476Y-130653333D01*
X82968095Y-130462857D01*
X83015714Y-130367619D01*
X83063333Y-130320000D01*
X83158571Y-130272380D01*
%TO.C,K16*%
X120855714Y-151192380D02*
X120855714Y-150192380D01*
X121427142Y-151192380D02*
X120998571Y-150620952D01*
X121427142Y-150192380D02*
X120855714Y-150763809D01*
X122379523Y-151192380D02*
X121808095Y-151192380D01*
X122093809Y-151192380D02*
X122093809Y-150192380D01*
X121998571Y-150335238D01*
X121903333Y-150430476D01*
X121808095Y-150478095D01*
X123236666Y-150192380D02*
X123046190Y-150192380D01*
X122950952Y-150240000D01*
X122903333Y-150287619D01*
X122808095Y-150430476D01*
X122760476Y-150620952D01*
X122760476Y-151001904D01*
X122808095Y-151097142D01*
X122855714Y-151144761D01*
X122950952Y-151192380D01*
X123141428Y-151192380D01*
X123236666Y-151144761D01*
X123284285Y-151097142D01*
X123331904Y-151001904D01*
X123331904Y-150763809D01*
X123284285Y-150668571D01*
X123236666Y-150620952D01*
X123141428Y-150573333D01*
X122950952Y-150573333D01*
X122855714Y-150620952D01*
X122808095Y-150668571D01*
X122760476Y-150763809D01*
%TO.C,D8*%
X122096190Y-104696904D02*
X122096190Y-103896904D01*
X122286667Y-103896904D01*
X122400952Y-103935000D01*
X122477143Y-104011190D01*
X122515238Y-104087380D01*
X122553333Y-104239761D01*
X122553333Y-104354047D01*
X122515238Y-104506428D01*
X122477143Y-104582619D01*
X122400952Y-104658809D01*
X122286667Y-104696904D01*
X122096190Y-104696904D01*
X123010476Y-104239761D02*
X122934286Y-104201666D01*
X122896190Y-104163571D01*
X122858095Y-104087380D01*
X122858095Y-104049285D01*
X122896190Y-103973095D01*
X122934286Y-103935000D01*
X123010476Y-103896904D01*
X123162857Y-103896904D01*
X123239047Y-103935000D01*
X123277143Y-103973095D01*
X123315238Y-104049285D01*
X123315238Y-104087380D01*
X123277143Y-104163571D01*
X123239047Y-104201666D01*
X123162857Y-104239761D01*
X123010476Y-104239761D01*
X122934286Y-104277857D01*
X122896190Y-104315952D01*
X122858095Y-104392142D01*
X122858095Y-104544523D01*
X122896190Y-104620714D01*
X122934286Y-104658809D01*
X123010476Y-104696904D01*
X123162857Y-104696904D01*
X123239047Y-104658809D01*
X123277143Y-104620714D01*
X123315238Y-104544523D01*
X123315238Y-104392142D01*
X123277143Y-104315952D01*
X123239047Y-104277857D01*
X123162857Y-104239761D01*
%TO.C,K7*%
X102001904Y-111322380D02*
X102001904Y-110322380D01*
X102573333Y-111322380D02*
X102144761Y-110750952D01*
X102573333Y-110322380D02*
X102001904Y-110893809D01*
X102906666Y-110322380D02*
X103573333Y-110322380D01*
X103144761Y-111322380D01*
%TO.C,K15*%
X100885714Y-151262380D02*
X100885714Y-150262380D01*
X101457142Y-151262380D02*
X101028571Y-150690952D01*
X101457142Y-150262380D02*
X100885714Y-150833809D01*
X102409523Y-151262380D02*
X101838095Y-151262380D01*
X102123809Y-151262380D02*
X102123809Y-150262380D01*
X102028571Y-150405238D01*
X101933333Y-150500476D01*
X101838095Y-150548095D01*
X103314285Y-150262380D02*
X102838095Y-150262380D01*
X102790476Y-150738571D01*
X102838095Y-150690952D01*
X102933333Y-150643333D01*
X103171428Y-150643333D01*
X103266666Y-150690952D01*
X103314285Y-150738571D01*
X103361904Y-150833809D01*
X103361904Y-151071904D01*
X103314285Y-151167142D01*
X103266666Y-151214761D01*
X103171428Y-151262380D01*
X102933333Y-151262380D01*
X102838095Y-151214761D01*
X102790476Y-151167142D01*
%TO.C,K13*%
X60735714Y-151422380D02*
X60735714Y-150422380D01*
X61307142Y-151422380D02*
X60878571Y-150850952D01*
X61307142Y-150422380D02*
X60735714Y-150993809D01*
X62259523Y-151422380D02*
X61688095Y-151422380D01*
X61973809Y-151422380D02*
X61973809Y-150422380D01*
X61878571Y-150565238D01*
X61783333Y-150660476D01*
X61688095Y-150708095D01*
X62592857Y-150422380D02*
X63211904Y-150422380D01*
X62878571Y-150803333D01*
X63021428Y-150803333D01*
X63116666Y-150850952D01*
X63164285Y-150898571D01*
X63211904Y-150993809D01*
X63211904Y-151231904D01*
X63164285Y-151327142D01*
X63116666Y-151374761D01*
X63021428Y-151422380D01*
X62735714Y-151422380D01*
X62640476Y-151374761D01*
X62592857Y-151327142D01*
%TO.C,D15*%
X101715238Y-144696904D02*
X101715238Y-143896904D01*
X101905714Y-143896904D01*
X102020000Y-143935000D01*
X102096190Y-144011190D01*
X102134286Y-144087380D01*
X102172381Y-144239761D01*
X102172381Y-144354047D01*
X102134286Y-144506428D01*
X102096190Y-144582619D01*
X102020000Y-144658809D01*
X101905714Y-144696904D01*
X101715238Y-144696904D01*
X102934286Y-144696904D02*
X102477143Y-144696904D01*
X102705714Y-144696904D02*
X102705714Y-143896904D01*
X102629524Y-144011190D01*
X102553333Y-144087380D01*
X102477143Y-144125476D01*
X103658095Y-143896904D02*
X103277143Y-143896904D01*
X103239047Y-144277857D01*
X103277143Y-144239761D01*
X103353333Y-144201666D01*
X103543809Y-144201666D01*
X103620000Y-144239761D01*
X103658095Y-144277857D01*
X103696190Y-144354047D01*
X103696190Y-144544523D01*
X103658095Y-144620714D01*
X103620000Y-144658809D01*
X103543809Y-144696904D01*
X103353333Y-144696904D01*
X103277143Y-144658809D01*
X103239047Y-144620714D01*
%TO.C,D5*%
X62096190Y-104696904D02*
X62096190Y-103896904D01*
X62286667Y-103896904D01*
X62400952Y-103935000D01*
X62477143Y-104011190D01*
X62515238Y-104087380D01*
X62553333Y-104239761D01*
X62553333Y-104354047D01*
X62515238Y-104506428D01*
X62477143Y-104582619D01*
X62400952Y-104658809D01*
X62286667Y-104696904D01*
X62096190Y-104696904D01*
X63277143Y-103896904D02*
X62896190Y-103896904D01*
X62858095Y-104277857D01*
X62896190Y-104239761D01*
X62972381Y-104201666D01*
X63162857Y-104201666D01*
X63239047Y-104239761D01*
X63277143Y-104277857D01*
X63315238Y-104354047D01*
X63315238Y-104544523D01*
X63277143Y-104620714D01*
X63239047Y-104658809D01*
X63162857Y-104696904D01*
X62972381Y-104696904D01*
X62896190Y-104658809D01*
X62858095Y-104620714D01*
%TO.C,D16*%
X121715238Y-144696904D02*
X121715238Y-143896904D01*
X121905714Y-143896904D01*
X122020000Y-143935000D01*
X122096190Y-144011190D01*
X122134286Y-144087380D01*
X122172381Y-144239761D01*
X122172381Y-144354047D01*
X122134286Y-144506428D01*
X122096190Y-144582619D01*
X122020000Y-144658809D01*
X121905714Y-144696904D01*
X121715238Y-144696904D01*
X122934286Y-144696904D02*
X122477143Y-144696904D01*
X122705714Y-144696904D02*
X122705714Y-143896904D01*
X122629524Y-144011190D01*
X122553333Y-144087380D01*
X122477143Y-144125476D01*
X123620000Y-143896904D02*
X123467619Y-143896904D01*
X123391428Y-143935000D01*
X123353333Y-143973095D01*
X123277143Y-144087380D01*
X123239047Y-144239761D01*
X123239047Y-144544523D01*
X123277143Y-144620714D01*
X123315238Y-144658809D01*
X123391428Y-144696904D01*
X123543809Y-144696904D01*
X123620000Y-144658809D01*
X123658095Y-144620714D01*
X123696190Y-144544523D01*
X123696190Y-144354047D01*
X123658095Y-144277857D01*
X123620000Y-144239761D01*
X123543809Y-144201666D01*
X123391428Y-144201666D01*
X123315238Y-144239761D01*
X123277143Y-144277857D01*
X123239047Y-144354047D01*
%TO.C,K12*%
X120875714Y-131392380D02*
X120875714Y-130392380D01*
X121447142Y-131392380D02*
X121018571Y-130820952D01*
X121447142Y-130392380D02*
X120875714Y-130963809D01*
X122399523Y-131392380D02*
X121828095Y-131392380D01*
X122113809Y-131392380D02*
X122113809Y-130392380D01*
X122018571Y-130535238D01*
X121923333Y-130630476D01*
X121828095Y-130678095D01*
X122780476Y-130487619D02*
X122828095Y-130440000D01*
X122923333Y-130392380D01*
X123161428Y-130392380D01*
X123256666Y-130440000D01*
X123304285Y-130487619D01*
X123351904Y-130582857D01*
X123351904Y-130678095D01*
X123304285Y-130820952D01*
X122732857Y-131392380D01*
X123351904Y-131392380D01*
D11*
%TO.C,U1*%
X113680476Y-41491904D02*
X113680476Y-45539523D01*
X113918571Y-46015714D01*
X114156666Y-46253809D01*
X114632857Y-46491904D01*
X115585238Y-46491904D01*
X116061428Y-46253809D01*
X116299523Y-46015714D01*
X116537619Y-45539523D01*
X116537619Y-41491904D01*
X121537619Y-46491904D02*
X118680476Y-46491904D01*
X120109047Y-46491904D02*
X120109047Y-41491904D01*
X119632857Y-42206190D01*
X119156666Y-42682380D01*
X118680476Y-42920476D01*
D10*
%TO.C,D6*%
X82096190Y-104696904D02*
X82096190Y-103896904D01*
X82286667Y-103896904D01*
X82400952Y-103935000D01*
X82477143Y-104011190D01*
X82515238Y-104087380D01*
X82553333Y-104239761D01*
X82553333Y-104354047D01*
X82515238Y-104506428D01*
X82477143Y-104582619D01*
X82400952Y-104658809D01*
X82286667Y-104696904D01*
X82096190Y-104696904D01*
X83239047Y-103896904D02*
X83086667Y-103896904D01*
X83010476Y-103935000D01*
X82972381Y-103973095D01*
X82896190Y-104087380D01*
X82858095Y-104239761D01*
X82858095Y-104544523D01*
X82896190Y-104620714D01*
X82934286Y-104658809D01*
X83010476Y-104696904D01*
X83162857Y-104696904D01*
X83239047Y-104658809D01*
X83277143Y-104620714D01*
X83315238Y-104544523D01*
X83315238Y-104354047D01*
X83277143Y-104277857D01*
X83239047Y-104239761D01*
X83162857Y-104201666D01*
X83010476Y-104201666D01*
X82934286Y-104239761D01*
X82896190Y-104277857D01*
X82858095Y-104354047D01*
%TO.C,RZ1*%
X55122142Y-45112380D02*
X54788809Y-44636190D01*
X54550714Y-45112380D02*
X54550714Y-44112380D01*
X54931666Y-44112380D01*
X55026904Y-44160000D01*
X55074523Y-44207619D01*
X55122142Y-44302857D01*
X55122142Y-44445714D01*
X55074523Y-44540952D01*
X55026904Y-44588571D01*
X54931666Y-44636190D01*
X54550714Y-44636190D01*
X55455476Y-44112380D02*
X56122142Y-44112380D01*
X55455476Y-45112380D01*
X56122142Y-45112380D01*
X57026904Y-45112380D02*
X56455476Y-45112380D01*
X56741190Y-45112380D02*
X56741190Y-44112380D01*
X56645952Y-44255238D01*
X56550714Y-44350476D01*
X56455476Y-44398095D01*
%TO.C,K6*%
X81941904Y-111282380D02*
X81941904Y-110282380D01*
X82513333Y-111282380D02*
X82084761Y-110710952D01*
X82513333Y-110282380D02*
X81941904Y-110853809D01*
X83370476Y-110282380D02*
X83180000Y-110282380D01*
X83084761Y-110330000D01*
X83037142Y-110377619D01*
X82941904Y-110520476D01*
X82894285Y-110710952D01*
X82894285Y-111091904D01*
X82941904Y-111187142D01*
X82989523Y-111234761D01*
X83084761Y-111282380D01*
X83275238Y-111282380D01*
X83370476Y-111234761D01*
X83418095Y-111187142D01*
X83465714Y-111091904D01*
X83465714Y-110853809D01*
X83418095Y-110758571D01*
X83370476Y-110710952D01*
X83275238Y-110663333D01*
X83084761Y-110663333D01*
X82989523Y-110710952D01*
X82941904Y-110758571D01*
X82894285Y-110853809D01*
%TO.C,K2*%
X81621904Y-91452380D02*
X81621904Y-90452380D01*
X82193333Y-91452380D02*
X81764761Y-90880952D01*
X82193333Y-90452380D02*
X81621904Y-91023809D01*
X82574285Y-90547619D02*
X82621904Y-90500000D01*
X82717142Y-90452380D01*
X82955238Y-90452380D01*
X83050476Y-90500000D01*
X83098095Y-90547619D01*
X83145714Y-90642857D01*
X83145714Y-90738095D01*
X83098095Y-90880952D01*
X82526666Y-91452380D01*
X83145714Y-91452380D01*
%TO.C,K9*%
X61481904Y-131412380D02*
X61481904Y-130412380D01*
X62053333Y-131412380D02*
X61624761Y-130840952D01*
X62053333Y-130412380D02*
X61481904Y-130983809D01*
X62529523Y-131412380D02*
X62720000Y-131412380D01*
X62815238Y-131364761D01*
X62862857Y-131317142D01*
X62958095Y-131174285D01*
X63005714Y-130983809D01*
X63005714Y-130602857D01*
X62958095Y-130507619D01*
X62910476Y-130460000D01*
X62815238Y-130412380D01*
X62624761Y-130412380D01*
X62529523Y-130460000D01*
X62481904Y-130507619D01*
X62434285Y-130602857D01*
X62434285Y-130840952D01*
X62481904Y-130936190D01*
X62529523Y-130983809D01*
X62624761Y-131031428D01*
X62815238Y-131031428D01*
X62910476Y-130983809D01*
X62958095Y-130936190D01*
X63005714Y-130840952D01*
%TO.C,K14*%
X80895714Y-151322380D02*
X80895714Y-150322380D01*
X81467142Y-151322380D02*
X81038571Y-150750952D01*
X81467142Y-150322380D02*
X80895714Y-150893809D01*
X82419523Y-151322380D02*
X81848095Y-151322380D01*
X82133809Y-151322380D02*
X82133809Y-150322380D01*
X82038571Y-150465238D01*
X81943333Y-150560476D01*
X81848095Y-150608095D01*
X83276666Y-150655714D02*
X83276666Y-151322380D01*
X83038571Y-150274761D02*
X82800476Y-150989047D01*
X83419523Y-150989047D01*
%TO.C,D3*%
X102096190Y-84696904D02*
X102096190Y-83896904D01*
X102286667Y-83896904D01*
X102400952Y-83935000D01*
X102477143Y-84011190D01*
X102515238Y-84087380D01*
X102553333Y-84239761D01*
X102553333Y-84354047D01*
X102515238Y-84506428D01*
X102477143Y-84582619D01*
X102400952Y-84658809D01*
X102286667Y-84696904D01*
X102096190Y-84696904D01*
X102820000Y-83896904D02*
X103315238Y-83896904D01*
X103048571Y-84201666D01*
X103162857Y-84201666D01*
X103239047Y-84239761D01*
X103277143Y-84277857D01*
X103315238Y-84354047D01*
X103315238Y-84544523D01*
X103277143Y-84620714D01*
X103239047Y-84658809D01*
X103162857Y-84696904D01*
X102934286Y-84696904D01*
X102858095Y-84658809D01*
X102820000Y-84620714D01*
D12*
%TO.C,K4*%
X115701667Y-89275000D02*
X129671667Y-89275000D01*
X129671667Y-89275000D02*
X129671667Y-103245000D01*
X129671667Y-103245000D02*
X115701667Y-103245000D01*
X115701667Y-103245000D02*
X115701667Y-89275000D01*
D13*
%TO.C,D7*%
X105711667Y-105060000D02*
X105711667Y-107460000D01*
X105136667Y-107460000D02*
X105136667Y-105060000D01*
X99886667Y-107460000D02*
X99886667Y-105060000D01*
X105311667Y-107460000D02*
X105311667Y-105060000D01*
X105611667Y-107460000D02*
X105611667Y-105060000D01*
X99886667Y-105060000D02*
X105686667Y-105060000D01*
X104961667Y-107460000D02*
X104961667Y-105060000D01*
X105486667Y-107460000D02*
X105486667Y-105060000D01*
X105686667Y-107460000D02*
X99886667Y-107460000D01*
%TO.C,D14*%
X85711667Y-145060000D02*
X85711667Y-147460000D01*
X85136667Y-147460000D02*
X85136667Y-145060000D01*
X79886667Y-145060000D02*
X85686667Y-145060000D01*
X79886667Y-147460000D02*
X79886667Y-145060000D01*
X85611667Y-147460000D02*
X85611667Y-145060000D01*
X85311667Y-147460000D02*
X85311667Y-145060000D01*
X85686667Y-147460000D02*
X79886667Y-147460000D01*
X84961667Y-147460000D02*
X84961667Y-145060000D01*
X85486667Y-147460000D02*
X85486667Y-145060000D01*
%TO.C,D13*%
X65611667Y-147460000D02*
X65611667Y-145060000D01*
X64961667Y-147460000D02*
X64961667Y-145060000D01*
X65136667Y-147460000D02*
X65136667Y-145060000D01*
X65486667Y-147460000D02*
X65486667Y-145060000D01*
X65711667Y-145060000D02*
X65711667Y-147460000D01*
X59886667Y-145060000D02*
X65686667Y-145060000D01*
X59886667Y-147460000D02*
X59886667Y-145060000D01*
X65311667Y-147460000D02*
X65311667Y-145060000D01*
X65686667Y-147460000D02*
X59886667Y-147460000D01*
%TO.C,D10*%
X79886667Y-127460000D02*
X79886667Y-125060000D01*
X85311667Y-127460000D02*
X85311667Y-125060000D01*
X85711667Y-125060000D02*
X85711667Y-127460000D01*
X85486667Y-127460000D02*
X85486667Y-125060000D01*
X84961667Y-127460000D02*
X84961667Y-125060000D01*
X79886667Y-125060000D02*
X85686667Y-125060000D01*
X85136667Y-127460000D02*
X85136667Y-125060000D01*
X85686667Y-127460000D02*
X79886667Y-127460000D01*
X85611667Y-127460000D02*
X85611667Y-125060000D01*
D12*
%TO.C,K8*%
X129671667Y-109275000D02*
X129671667Y-123245000D01*
X115701667Y-109275000D02*
X129671667Y-109275000D01*
X129671667Y-123245000D02*
X115701667Y-123245000D01*
X115701667Y-123245000D02*
X115701667Y-109275000D01*
D13*
%TO.C,D4*%
X125711667Y-85060000D02*
X125711667Y-87460000D01*
X125686667Y-87460000D02*
X119886667Y-87460000D01*
X125486667Y-87460000D02*
X125486667Y-85060000D01*
X119886667Y-85060000D02*
X125686667Y-85060000D01*
X125611667Y-87460000D02*
X125611667Y-85060000D01*
X119886667Y-87460000D02*
X119886667Y-85060000D01*
X125311667Y-87460000D02*
X125311667Y-85060000D01*
X124961667Y-87460000D02*
X124961667Y-85060000D01*
X125136667Y-87460000D02*
X125136667Y-85060000D01*
D12*
%TO.C,K5*%
X69631667Y-109275000D02*
X69631667Y-123245000D01*
X55661667Y-109275000D02*
X69631667Y-109275000D01*
X55661667Y-123245000D02*
X55661667Y-109275000D01*
X69631667Y-123245000D02*
X55661667Y-123245000D01*
D13*
%TO.C,D9*%
X65611667Y-127460000D02*
X65611667Y-125060000D01*
X65486667Y-127460000D02*
X65486667Y-125060000D01*
X64961667Y-127460000D02*
X64961667Y-125060000D01*
X65711667Y-125060000D02*
X65711667Y-127460000D01*
X65311667Y-127460000D02*
X65311667Y-125060000D01*
X59886667Y-125060000D02*
X65686667Y-125060000D01*
X65686667Y-127460000D02*
X59886667Y-127460000D01*
X59886667Y-127460000D02*
X59886667Y-125060000D01*
X65136667Y-127460000D02*
X65136667Y-125060000D01*
D12*
%TO.C,K11*%
X95701667Y-143245000D02*
X95701667Y-129275000D01*
X95701667Y-129275000D02*
X109671667Y-129275000D01*
X109671667Y-143245000D02*
X95701667Y-143245000D01*
X109671667Y-129275000D02*
X109671667Y-143245000D01*
%TO.C,K3*%
X95688333Y-89275000D02*
X109658333Y-89275000D01*
X95688333Y-103245000D02*
X95688333Y-89275000D01*
X109658333Y-103245000D02*
X95688333Y-103245000D01*
X109658333Y-89275000D02*
X109658333Y-103245000D01*
D13*
%TO.C,D12*%
X119886667Y-125060000D02*
X125686667Y-125060000D01*
X119886667Y-127460000D02*
X119886667Y-125060000D01*
X124961667Y-127460000D02*
X124961667Y-125060000D01*
X125486667Y-127460000D02*
X125486667Y-125060000D01*
X125136667Y-127460000D02*
X125136667Y-125060000D01*
X125711667Y-125060000D02*
X125711667Y-127460000D01*
X125311667Y-127460000D02*
X125311667Y-125060000D01*
X125686667Y-127460000D02*
X119886667Y-127460000D01*
X125611667Y-127460000D02*
X125611667Y-125060000D01*
D12*
%TO.C,K1*%
X55661667Y-103245000D02*
X55661667Y-89275000D01*
X69631667Y-103245000D02*
X55661667Y-103245000D01*
X69631667Y-89275000D02*
X69631667Y-103245000D01*
X55661667Y-89275000D02*
X69631667Y-89275000D01*
%TO.C,SW1*%
X56280000Y-71140000D02*
X55280000Y-71140000D01*
X49680000Y-67640000D02*
X49680000Y-65240000D01*
X55780000Y-71640000D02*
X55780000Y-70640000D01*
X63280000Y-74940000D02*
X63580000Y-75240000D01*
X49680000Y-72440000D02*
X49680000Y-69840000D01*
X49680000Y-77040000D02*
X49680000Y-74640000D01*
X49680000Y-65240000D02*
X53780000Y-65240000D01*
X53780000Y-77040000D02*
X49680000Y-77040000D01*
X62980000Y-75240000D02*
X63280000Y-74940000D01*
X63580000Y-75240000D02*
X62980000Y-75240000D01*
X61880000Y-77040000D02*
X61880000Y-65240000D01*
X57780000Y-65240000D02*
X61880000Y-65240000D01*
X57780000Y-77040000D02*
X61880000Y-77040000D01*
X58780000Y-71140000D02*
G75*
G03*
X58780000Y-71140000I-3000000J0D01*
G01*
D13*
%TO.C,D1*%
X59886667Y-87460000D02*
X59886667Y-85060000D01*
X59886667Y-85060000D02*
X65686667Y-85060000D01*
X65711667Y-85060000D02*
X65711667Y-87460000D01*
X65136667Y-87460000D02*
X65136667Y-85060000D01*
X65486667Y-87460000D02*
X65486667Y-85060000D01*
X64961667Y-87460000D02*
X64961667Y-85060000D01*
X65686667Y-87460000D02*
X59886667Y-87460000D01*
X65311667Y-87460000D02*
X65311667Y-85060000D01*
X65611667Y-87460000D02*
X65611667Y-85060000D01*
%TO.C,D2*%
X84961667Y-87460000D02*
X84961667Y-85060000D01*
X79886667Y-87460000D02*
X79886667Y-85060000D01*
X85486667Y-87460000D02*
X85486667Y-85060000D01*
X85311667Y-87460000D02*
X85311667Y-85060000D01*
X85136667Y-87460000D02*
X85136667Y-85060000D01*
X79886667Y-85060000D02*
X85686667Y-85060000D01*
X85686667Y-87460000D02*
X79886667Y-87460000D01*
X85711667Y-85060000D02*
X85711667Y-87460000D01*
X85611667Y-87460000D02*
X85611667Y-85060000D01*
%TO.C,D11*%
X99886667Y-127460000D02*
X99886667Y-125060000D01*
X105611667Y-127460000D02*
X105611667Y-125060000D01*
X105311667Y-127460000D02*
X105311667Y-125060000D01*
X104961667Y-127460000D02*
X104961667Y-125060000D01*
X105136667Y-127460000D02*
X105136667Y-125060000D01*
X105711667Y-125060000D02*
X105711667Y-127460000D01*
X105686667Y-127460000D02*
X99886667Y-127460000D01*
X99886667Y-125060000D02*
X105686667Y-125060000D01*
X105486667Y-127460000D02*
X105486667Y-125060000D01*
D12*
%TO.C,K10*%
X89671667Y-129275000D02*
X89671667Y-143245000D01*
X75701667Y-129275000D02*
X89671667Y-129275000D01*
X75701667Y-143245000D02*
X75701667Y-129275000D01*
X89671667Y-143245000D02*
X75701667Y-143245000D01*
%TO.C,K16*%
X115701667Y-163245000D02*
X115701667Y-149275000D01*
X115701667Y-149275000D02*
X129671667Y-149275000D01*
X129671667Y-149275000D02*
X129671667Y-163245000D01*
X129671667Y-163245000D02*
X115701667Y-163245000D01*
D13*
%TO.C,D8*%
X125711667Y-105060000D02*
X125711667Y-107460000D01*
X125136667Y-107460000D02*
X125136667Y-105060000D01*
X119886667Y-105060000D02*
X125686667Y-105060000D01*
X119886667Y-107460000D02*
X119886667Y-105060000D01*
X125686667Y-107460000D02*
X119886667Y-107460000D01*
X124961667Y-107460000D02*
X124961667Y-105060000D01*
X125311667Y-107460000D02*
X125311667Y-105060000D01*
X125486667Y-107460000D02*
X125486667Y-105060000D01*
X125611667Y-107460000D02*
X125611667Y-105060000D01*
D12*
%TO.C,K7*%
X109658333Y-109275000D02*
X109658333Y-123245000D01*
X95688333Y-109275000D02*
X109658333Y-109275000D01*
X109658333Y-123245000D02*
X95688333Y-123245000D01*
X95688333Y-123245000D02*
X95688333Y-109275000D01*
%TO.C,K15*%
X109671667Y-149275000D02*
X109671667Y-163245000D01*
X95701667Y-163245000D02*
X95701667Y-149275000D01*
X109671667Y-163245000D02*
X95701667Y-163245000D01*
X95701667Y-149275000D02*
X109671667Y-149275000D01*
%TO.C,K13*%
X55701667Y-149355000D02*
X69671667Y-149355000D01*
X55701667Y-163325000D02*
X55701667Y-149355000D01*
X69671667Y-163325000D02*
X55701667Y-163325000D01*
X69671667Y-149355000D02*
X69671667Y-163325000D01*
D13*
%TO.C,D15*%
X105311667Y-147460000D02*
X105311667Y-145060000D01*
X104961667Y-147460000D02*
X104961667Y-145060000D01*
X105136667Y-147460000D02*
X105136667Y-145060000D01*
X99886667Y-147460000D02*
X99886667Y-145060000D01*
X99886667Y-145060000D02*
X105686667Y-145060000D01*
X105486667Y-147460000D02*
X105486667Y-145060000D01*
X105611667Y-147460000D02*
X105611667Y-145060000D01*
X105711667Y-145060000D02*
X105711667Y-147460000D01*
X105686667Y-147460000D02*
X99886667Y-147460000D01*
%TO.C,D5*%
X65611667Y-107460000D02*
X65611667Y-105060000D01*
X65686667Y-107460000D02*
X59886667Y-107460000D01*
X65311667Y-107460000D02*
X65311667Y-105060000D01*
X59886667Y-107460000D02*
X59886667Y-105060000D01*
X65486667Y-107460000D02*
X65486667Y-105060000D01*
X65136667Y-107460000D02*
X65136667Y-105060000D01*
X64961667Y-107460000D02*
X64961667Y-105060000D01*
X65711667Y-105060000D02*
X65711667Y-107460000D01*
X59886667Y-105060000D02*
X65686667Y-105060000D01*
%TO.C,D16*%
X125136667Y-147460000D02*
X125136667Y-145060000D01*
X125611667Y-147460000D02*
X125611667Y-145060000D01*
X125486667Y-147460000D02*
X125486667Y-145060000D01*
X119886667Y-145060000D02*
X125686667Y-145060000D01*
X125711667Y-145060000D02*
X125711667Y-147460000D01*
X125311667Y-147460000D02*
X125311667Y-145060000D01*
X124961667Y-147460000D02*
X124961667Y-145060000D01*
X125686667Y-147460000D02*
X119886667Y-147460000D01*
X119886667Y-147460000D02*
X119886667Y-145060000D01*
D12*
%TO.C,K12*%
X115701667Y-143245000D02*
X115701667Y-129275000D01*
X129671667Y-143245000D02*
X115701667Y-143245000D01*
X115701667Y-129275000D02*
X129671667Y-129275000D01*
X129671667Y-129275000D02*
X129671667Y-143245000D01*
%TO.C,U1*%
X133600000Y-79730000D02*
X73340000Y-79730000D01*
X73340000Y-79730000D02*
X73340000Y-37010000D01*
X73340000Y-37010000D02*
X133600000Y-37010000D01*
X133600000Y-37010000D02*
X133600000Y-79730000D01*
X144010000Y-79730000D02*
X66830000Y-79730000D01*
X66830000Y-79730000D02*
X66830000Y-37010000D01*
X66830000Y-37010000D02*
X144010000Y-37010000D01*
X144010000Y-37010000D02*
X144010000Y-79730000D01*
D13*
%TO.C,D6*%
X85611667Y-107460000D02*
X85611667Y-105060000D01*
X85711667Y-105060000D02*
X85711667Y-107460000D01*
X79886667Y-105060000D02*
X85686667Y-105060000D01*
X85486667Y-107460000D02*
X85486667Y-105060000D01*
X79886667Y-107460000D02*
X79886667Y-105060000D01*
X85136667Y-107460000D02*
X85136667Y-105060000D01*
X84961667Y-107460000D02*
X84961667Y-105060000D01*
X85311667Y-107460000D02*
X85311667Y-105060000D01*
X85686667Y-107460000D02*
X79886667Y-107460000D01*
D12*
%TO.C,RZ1*%
X46765000Y-35660000D02*
X46765000Y-59160000D01*
X64765000Y-35660000D02*
X46765000Y-35660000D01*
X46765000Y-59160000D02*
X64765000Y-59160000D01*
X64765000Y-59160000D02*
X64765000Y-35660000D01*
%TO.C,K6*%
X75675000Y-123245000D02*
X75675000Y-109275000D01*
X89645000Y-123245000D02*
X75675000Y-123245000D01*
X75675000Y-109275000D02*
X89645000Y-109275000D01*
X89645000Y-109275000D02*
X89645000Y-123245000D01*
%TO.C,K2*%
X75675000Y-103245000D02*
X75675000Y-89275000D01*
X89645000Y-103245000D02*
X75675000Y-103245000D01*
X75675000Y-89275000D02*
X89645000Y-89275000D01*
X89645000Y-89275000D02*
X89645000Y-103245000D01*
%TO.C,K9*%
X69631667Y-129355000D02*
X69631667Y-143325000D01*
X55661667Y-143325000D02*
X55661667Y-129355000D01*
X69631667Y-143325000D02*
X55661667Y-143325000D01*
X55661667Y-129355000D02*
X69631667Y-129355000D01*
%TO.C,K14*%
X89631667Y-149355000D02*
X89631667Y-163325000D01*
X75661667Y-163325000D02*
X75661667Y-149355000D01*
X75661667Y-149355000D02*
X89631667Y-149355000D01*
X89631667Y-163325000D02*
X75661667Y-163325000D01*
D13*
%TO.C,D3*%
X105611667Y-87460000D02*
X105611667Y-85060000D01*
X105711667Y-85060000D02*
X105711667Y-87460000D01*
X104961667Y-87460000D02*
X104961667Y-85060000D01*
X99886667Y-85060000D02*
X105686667Y-85060000D01*
X105136667Y-87460000D02*
X105136667Y-85060000D01*
X105686667Y-87460000D02*
X99886667Y-87460000D01*
X105486667Y-87460000D02*
X105486667Y-85060000D01*
X99886667Y-87460000D02*
X99886667Y-85060000D01*
X105311667Y-87460000D02*
X105311667Y-85060000D01*
%TD*%
D14*
%TO.C,D7*%
X106586667Y-106260000D03*
D15*
X98786667Y-106260000D03*
%TD*%
D14*
%TO.C,D14*%
X86586667Y-146260000D03*
D15*
X78786667Y-146260000D03*
%TD*%
D14*
%TO.C,D13*%
X66586667Y-146260000D03*
D15*
X58786667Y-146260000D03*
%TD*%
D14*
%TO.C,D10*%
X86586667Y-126260000D03*
D15*
X78786667Y-126260000D03*
%TD*%
D14*
%TO.C,D4*%
X126586667Y-86260000D03*
D15*
X118786667Y-86260000D03*
%TD*%
D14*
%TO.C,D9*%
X66586667Y-126260000D03*
D15*
X58786667Y-126260000D03*
%TD*%
D14*
%TO.C,D12*%
X126586667Y-126260000D03*
D15*
X118786667Y-126260000D03*
%TD*%
D14*
%TO.C,D1*%
X66586667Y-86260000D03*
D15*
X58786667Y-86260000D03*
%TD*%
D14*
%TO.C,D2*%
X86586667Y-86260000D03*
D15*
X78786667Y-86260000D03*
%TD*%
D14*
%TO.C,D11*%
X106586667Y-126260000D03*
D15*
X98786667Y-126260000D03*
%TD*%
D14*
%TO.C,D8*%
X126586667Y-106260000D03*
D15*
X118786667Y-106260000D03*
%TD*%
D14*
%TO.C,D15*%
X106586667Y-146260000D03*
D15*
X98786667Y-146260000D03*
%TD*%
D14*
%TO.C,D5*%
X66586667Y-106260000D03*
D15*
X58786667Y-106260000D03*
%TD*%
D14*
%TO.C,D16*%
X126586667Y-146260000D03*
D15*
X118786667Y-146260000D03*
%TD*%
D14*
%TO.C,D6*%
X86586667Y-106260000D03*
D15*
X78786667Y-106260000D03*
%TD*%
D14*
%TO.C,D3*%
X106586667Y-86260000D03*
D15*
X98786667Y-86260000D03*
%TD*%
M02*
