%TF.GenerationSoftware,KiCad,Pcbnew,(6.0.4)*%
%TF.CreationDate,2022-05-01T23:44:28+08:00*%
%TF.ProjectId,RP2040_16Key_ili9341_LCD_keypad,52503230-3430-45f3-9136-4b65795f696c,rev?*%
%TF.SameCoordinates,Original*%
%TF.FileFunction,Copper,L1,Top*%
%TF.FilePolarity,Positive*%
%FSLAX46Y46*%
G04 Gerber Fmt 4.6, Leading zero omitted, Abs format (unit mm)*
G04 Created by KiCad (PCBNEW (6.0.4)) date 2022-05-01 23:44:28*
%MOMM*%
%LPD*%
G01*
G04 APERTURE LIST*
%TA.AperFunction,ComponentPad*%
%ADD10C,2.200000*%
%TD*%
%TA.AperFunction,SMDPad,CuDef*%
%ADD11R,2.500000X0.500000*%
%TD*%
%TA.AperFunction,ComponentPad*%
%ADD12R,1.600000X1.600000*%
%TD*%
%TA.AperFunction,SMDPad,CuDef*%
%ADD13R,1.200000X1.200000*%
%TD*%
%TA.AperFunction,ComponentPad*%
%ADD14C,1.600000*%
%TD*%
%TA.AperFunction,ComponentPad*%
%ADD15R,2.000000X2.000000*%
%TD*%
%TA.AperFunction,ComponentPad*%
%ADD16C,2.000000*%
%TD*%
%TA.AperFunction,ComponentPad*%
%ADD17R,3.200000X2.000000*%
%TD*%
%TA.AperFunction,ComponentPad*%
%ADD18C,4.500000*%
%TD*%
%TA.AperFunction,ComponentPad*%
%ADD19C,1.700000*%
%TD*%
%TA.AperFunction,ViaPad*%
%ADD20C,0.800000*%
%TD*%
%TA.AperFunction,Conductor*%
%ADD21C,0.250000*%
%TD*%
G04 APERTURE END LIST*
D10*
%TO.P,K4,1*%
%TO.N,COL_4*%
X125226667Y-91180000D03*
%TO.P,K4,2*%
%TO.N,Net-(D4-Pad2)*%
X118876667Y-93720000D03*
%TD*%
D11*
%TO.P,D7,1,K*%
%TO.N,ROW_2*%
X105386667Y-106260000D03*
D12*
X106586667Y-106260000D03*
D13*
X104261667Y-106260000D03*
D11*
%TO.P,D7,2,A*%
%TO.N,Net-(D7-Pad2)*%
X99986667Y-106260000D03*
D14*
X98786667Y-106260000D03*
D13*
X101111667Y-106260000D03*
%TD*%
D12*
%TO.P,D14,1,K*%
%TO.N,ROW_4*%
X86586667Y-146260000D03*
D11*
X85386667Y-146260000D03*
D13*
X84261667Y-146260000D03*
D11*
%TO.P,D14,2,A*%
%TO.N,Net-(D14-Pad2)*%
X79986667Y-146260000D03*
D13*
X81111667Y-146260000D03*
D14*
X78786667Y-146260000D03*
%TD*%
D12*
%TO.P,D13,1,K*%
%TO.N,ROW_4*%
X66586667Y-146260000D03*
D11*
X65386667Y-146260000D03*
D13*
X64261667Y-146260000D03*
%TO.P,D13,2,A*%
%TO.N,Net-(D13-Pad2)*%
X61111667Y-146260000D03*
D14*
X58786667Y-146260000D03*
D11*
X59986667Y-146260000D03*
%TD*%
D13*
%TO.P,D10,1,K*%
%TO.N,ROW_3*%
X84261667Y-126260000D03*
D12*
X86586667Y-126260000D03*
D11*
X85386667Y-126260000D03*
D13*
%TO.P,D10,2,A*%
%TO.N,Net-(D10-Pad2)*%
X81111667Y-126260000D03*
D14*
X78786667Y-126260000D03*
D11*
X79986667Y-126260000D03*
%TD*%
D10*
%TO.P,K8,1*%
%TO.N,COL_4*%
X125226667Y-111180000D03*
%TO.P,K8,2*%
%TO.N,Net-(D8-Pad2)*%
X118876667Y-113720000D03*
%TD*%
D13*
%TO.P,D4,1,K*%
%TO.N,ROW_1*%
X124261667Y-86260000D03*
D12*
X126586667Y-86260000D03*
D11*
X125386667Y-86260000D03*
D13*
%TO.P,D4,2,A*%
%TO.N,Net-(D4-Pad2)*%
X121111667Y-86260000D03*
D14*
X118786667Y-86260000D03*
D11*
X119986667Y-86260000D03*
%TD*%
D10*
%TO.P,K5,1*%
%TO.N,COL_1*%
X65186667Y-111180000D03*
%TO.P,K5,2*%
%TO.N,Net-(D5-Pad2)*%
X58836667Y-113720000D03*
%TD*%
D11*
%TO.P,D9,1,K*%
%TO.N,ROW_3*%
X65386667Y-126260000D03*
D12*
X66586667Y-126260000D03*
D13*
X64261667Y-126260000D03*
D11*
%TO.P,D9,2,A*%
%TO.N,Net-(D9-Pad2)*%
X59986667Y-126260000D03*
D14*
X58786667Y-126260000D03*
D13*
X61111667Y-126260000D03*
%TD*%
D10*
%TO.P,K11,1*%
%TO.N,COL_3*%
X105226667Y-131180000D03*
%TO.P,K11,2*%
%TO.N,Net-(D11-Pad2)*%
X98876667Y-133720000D03*
%TD*%
%TO.P,K3,1*%
%TO.N,COL_3*%
X105213333Y-91180000D03*
%TO.P,K3,2*%
%TO.N,Net-(D3-Pad2)*%
X98863333Y-93720000D03*
%TD*%
D13*
%TO.P,D12,1,K*%
%TO.N,ROW_3*%
X124261667Y-126260000D03*
D12*
X126586667Y-126260000D03*
D11*
X125386667Y-126260000D03*
D14*
%TO.P,D12,2,A*%
%TO.N,Net-(D12-Pad2)*%
X118786667Y-126260000D03*
D13*
X121111667Y-126260000D03*
D11*
X119986667Y-126260000D03*
%TD*%
D10*
%TO.P,K1,1*%
%TO.N,COL_1*%
X65186667Y-91180000D03*
%TO.P,K1,2*%
%TO.N,Net-(D1-Pad2)*%
X58836667Y-93720000D03*
%TD*%
D15*
%TO.P,SW1,A,A*%
%TO.N,ENC_A*%
X63280000Y-73640000D03*
D16*
%TO.P,SW1,B,B*%
%TO.N,ENC_B*%
X63280000Y-68640000D03*
%TO.P,SW1,C,C*%
%TO.N,GND*%
X63280000Y-71140000D03*
D17*
%TO.P,SW1,MP*%
%TO.N,N/C*%
X55780000Y-65540000D03*
X55780000Y-76740000D03*
D16*
%TO.P,SW1,S1,S1*%
%TO.N,GND*%
X48780000Y-68640000D03*
%TO.P,SW1,S2,S2*%
%TO.N,ENC_SW*%
X48780000Y-73640000D03*
%TD*%
D11*
%TO.P,D1,1,K*%
%TO.N,ROW_1*%
X65386667Y-86260000D03*
D12*
X66586667Y-86260000D03*
D13*
X64261667Y-86260000D03*
D14*
%TO.P,D1,2,A*%
%TO.N,Net-(D1-Pad2)*%
X58786667Y-86260000D03*
D13*
X61111667Y-86260000D03*
D11*
X59986667Y-86260000D03*
%TD*%
D12*
%TO.P,D2,1,K*%
%TO.N,ROW_1*%
X86586667Y-86260000D03*
D11*
X85386667Y-86260000D03*
D13*
X84261667Y-86260000D03*
D14*
%TO.P,D2,2,A*%
%TO.N,Net-(D2-Pad2)*%
X78786667Y-86260000D03*
D13*
X81111667Y-86260000D03*
D11*
X79986667Y-86260000D03*
%TD*%
%TO.P,D11,1,K*%
%TO.N,ROW_3*%
X105386667Y-126260000D03*
D13*
X104261667Y-126260000D03*
D12*
X106586667Y-126260000D03*
D14*
%TO.P,D11,2,A*%
%TO.N,Net-(D11-Pad2)*%
X98786667Y-126260000D03*
D13*
X101111667Y-126260000D03*
D11*
X99986667Y-126260000D03*
%TD*%
D10*
%TO.P,K10,1*%
%TO.N,COL_2*%
X85226667Y-131180000D03*
%TO.P,K10,2*%
%TO.N,Net-(D10-Pad2)*%
X78876667Y-133720000D03*
%TD*%
%TO.P,K16,1*%
%TO.N,COL_4*%
X125226667Y-151180000D03*
%TO.P,K16,2*%
%TO.N,Net-(D16-Pad2)*%
X118876667Y-153720000D03*
%TD*%
D12*
%TO.P,D8,1,K*%
%TO.N,ROW_2*%
X126586667Y-106260000D03*
D11*
X125386667Y-106260000D03*
D13*
X124261667Y-106260000D03*
%TO.P,D8,2,A*%
%TO.N,Net-(D8-Pad2)*%
X121111667Y-106260000D03*
D14*
X118786667Y-106260000D03*
D11*
X119986667Y-106260000D03*
%TD*%
D10*
%TO.P,K7,1*%
%TO.N,COL_3*%
X105213333Y-111180000D03*
%TO.P,K7,2*%
%TO.N,Net-(D7-Pad2)*%
X98863333Y-113720000D03*
%TD*%
%TO.P,K15,1*%
%TO.N,COL_3*%
X105226667Y-151180000D03*
%TO.P,K15,2*%
%TO.N,Net-(D15-Pad2)*%
X98876667Y-153720000D03*
%TD*%
%TO.P,K13,1*%
%TO.N,COL_1*%
X65226667Y-151260000D03*
%TO.P,K13,2*%
%TO.N,Net-(D13-Pad2)*%
X58876667Y-153800000D03*
%TD*%
D13*
%TO.P,D15,1,K*%
%TO.N,ROW_4*%
X104261667Y-146260000D03*
D11*
X105386667Y-146260000D03*
D12*
X106586667Y-146260000D03*
D13*
%TO.P,D15,2,A*%
%TO.N,Net-(D15-Pad2)*%
X101111667Y-146260000D03*
D14*
X98786667Y-146260000D03*
D11*
X99986667Y-146260000D03*
%TD*%
D12*
%TO.P,D5,1,K*%
%TO.N,ROW_2*%
X66586667Y-106260000D03*
D11*
X65386667Y-106260000D03*
D13*
X64261667Y-106260000D03*
%TO.P,D5,2,A*%
%TO.N,Net-(D5-Pad2)*%
X61111667Y-106260000D03*
D14*
X58786667Y-106260000D03*
D11*
X59986667Y-106260000D03*
%TD*%
%TO.P,D16,1,K*%
%TO.N,ROW_4*%
X125386667Y-146260000D03*
D12*
X126586667Y-146260000D03*
D13*
X124261667Y-146260000D03*
D14*
%TO.P,D16,2,A*%
%TO.N,Net-(D16-Pad2)*%
X118786667Y-146260000D03*
D13*
X121111667Y-146260000D03*
D11*
X119986667Y-146260000D03*
%TD*%
D10*
%TO.P,K12,1*%
%TO.N,COL_4*%
X125226667Y-131180000D03*
%TO.P,K12,2*%
%TO.N,Net-(D12-Pad2)*%
X118876667Y-133720000D03*
%TD*%
D18*
%TO.P,U1,*%
%TO.N,*%
X69830000Y-76730000D03*
X137090000Y-76730000D03*
X137090000Y-40010000D03*
X69830000Y-40010000D03*
D19*
%TO.P,U1,1,VCC*%
%TO.N,+3V3*%
X142010000Y-74880000D03*
%TO.P,U1,2,GND*%
%TO.N,GND*%
X142010000Y-72340000D03*
%TO.P,U1,3,CS*%
%TO.N,LCD_CS*%
X142010000Y-69800000D03*
%TO.P,U1,4,RESET*%
%TO.N,LCD_RESET*%
X142010000Y-67260000D03*
%TO.P,U1,5,DC/RS*%
%TO.N,LCD_DC*%
X142010000Y-64630000D03*
%TO.P,U1,6,SD(MOSI)*%
%TO.N,LCD_SD(MOSI)*%
X142010000Y-62180000D03*
%TO.P,U1,7,SCK*%
%TO.N,LCD_SCK*%
X142010000Y-59640000D03*
%TO.P,U1,8,LED*%
%TO.N,+3V3*%
X142010000Y-57100000D03*
%TO.P,U1,9,SDO(MISO)*%
%TO.N,unconnected-(U1-Pad9)*%
X142010000Y-54560000D03*
%TO.P,U1,10,T_LCK*%
%TO.N,unconnected-(U1-Pad10)*%
X142010000Y-52020000D03*
%TO.P,U1,11,T_CS*%
%TO.N,unconnected-(U1-Pad11)*%
X142010000Y-49480000D03*
%TO.P,U1,12,T_DIN*%
%TO.N,unconnected-(U1-Pad12)*%
X142010000Y-46940000D03*
%TO.P,U1,13,T_DO*%
%TO.N,unconnected-(U1-Pad13)*%
X142010000Y-44400000D03*
%TO.P,U1,14,T_IRQ*%
%TO.N,unconnected-(U1-Pad14)*%
X142010000Y-41860000D03*
%TO.P,U1,15,SD_CS*%
%TO.N,unconnected-(U1-Pad15)*%
X68830000Y-62180000D03*
%TO.P,U1,16,SD_MOSI*%
%TO.N,unconnected-(U1-Pad16)*%
X68830000Y-59640000D03*
%TO.P,U1,17,SD_MISO*%
%TO.N,unconnected-(U1-Pad17)*%
X68830000Y-57100000D03*
%TO.P,U1,18,SD_SCK*%
%TO.N,unconnected-(U1-Pad18)*%
X68830000Y-54560000D03*
%TD*%
D13*
%TO.P,D6,1,K*%
%TO.N,ROW_2*%
X84261667Y-106260000D03*
D12*
X86586667Y-106260000D03*
D11*
X85386667Y-106260000D03*
D14*
%TO.P,D6,2,A*%
%TO.N,Net-(D6-Pad2)*%
X78786667Y-106260000D03*
D11*
X79986667Y-106260000D03*
D13*
X81111667Y-106260000D03*
%TD*%
D14*
%TO.P,RZ1,1,GP0*%
%TO.N,COL_1*%
X63385000Y-37250000D03*
%TO.P,RZ1,2,GP1*%
%TO.N,COL_2*%
X63385000Y-39790000D03*
%TO.P,RZ1,3,GP2*%
%TO.N,COL_3*%
X63385000Y-42330000D03*
%TO.P,RZ1,4,GP3*%
%TO.N,COL_4*%
X63385000Y-44870000D03*
%TO.P,RZ1,5,GP4*%
%TO.N,ROW_3*%
X63385000Y-47410000D03*
%TO.P,RZ1,6,GP5*%
%TO.N,ROW_4*%
X63385000Y-49950000D03*
%TO.P,RZ1,7,GP6*%
%TO.N,LCD_SCK*%
X63385000Y-52490000D03*
%TO.P,RZ1,8,GP7*%
%TO.N,LCD_SD(MOSI)*%
X63385000Y-55030000D03*
%TO.P,RZ1,9,GP8*%
%TO.N,ROW_2*%
X63385000Y-57570000D03*
%TO.P,RZ1,10,GP9*%
%TO.N,ROW_1*%
X60845000Y-57780000D03*
%TO.P,RZ1,11,GP10*%
%TO.N,ENC_A*%
X58305000Y-57780000D03*
%TO.P,RZ1,12,GP11*%
%TO.N,ENC_B*%
X55765000Y-57780000D03*
%TO.P,RZ1,13,GP12*%
%TO.N,ENC_SW*%
X53225000Y-57780000D03*
%TO.P,RZ1,14,GP13*%
%TO.N,LCD_CS*%
X50685000Y-57780000D03*
%TO.P,RZ1,15,GP14*%
%TO.N,LCD_RESET*%
X48145000Y-57570000D03*
%TO.P,RZ1,16,GP15*%
%TO.N,LCD_DC*%
X48145000Y-55030000D03*
%TO.P,RZ1,17,GP26*%
%TO.N,RGBDATA_1*%
X48145000Y-52490000D03*
%TO.P,RZ1,18,GP27*%
%TO.N,unconnected-(RZ1-Pad18)*%
X48145000Y-49950000D03*
%TO.P,RZ1,19,GP28*%
%TO.N,unconnected-(RZ1-Pad19)*%
X48145000Y-47410000D03*
%TO.P,RZ1,20,GP29*%
%TO.N,unconnected-(RZ1-Pad20)*%
X48145000Y-44870000D03*
%TO.P,RZ1,21,3V3*%
%TO.N,+3V3*%
X48145000Y-42330000D03*
%TO.P,RZ1,22,5V*%
%TO.N,+5V*%
X48145000Y-37250000D03*
%TO.P,RZ1,23,GND*%
%TO.N,GND*%
X48145000Y-39790000D03*
%TD*%
D10*
%TO.P,K6,1*%
%TO.N,COL_2*%
X85200000Y-111180000D03*
%TO.P,K6,2*%
%TO.N,Net-(D6-Pad2)*%
X78850000Y-113720000D03*
%TD*%
%TO.P,K2,1*%
%TO.N,COL_2*%
X85200000Y-91180000D03*
%TO.P,K2,2*%
%TO.N,Net-(D2-Pad2)*%
X78850000Y-93720000D03*
%TD*%
%TO.P,K9,1*%
%TO.N,COL_1*%
X65186667Y-131260000D03*
%TO.P,K9,2*%
%TO.N,Net-(D9-Pad2)*%
X58836667Y-133800000D03*
%TD*%
%TO.P,K14,1*%
%TO.N,COL_2*%
X85186667Y-151260000D03*
%TO.P,K14,2*%
%TO.N,Net-(D14-Pad2)*%
X78836667Y-153800000D03*
%TD*%
D12*
%TO.P,D3,1,K*%
%TO.N,ROW_1*%
X106586667Y-86260000D03*
D11*
X105386667Y-86260000D03*
D13*
X104261667Y-86260000D03*
D14*
%TO.P,D3,2,A*%
%TO.N,Net-(D3-Pad2)*%
X98786667Y-86260000D03*
D13*
X101111667Y-86260000D03*
D11*
X99986667Y-86260000D03*
%TD*%
D20*
%TO.N,+3V3*%
X115790000Y-89680000D03*
X95930000Y-159430000D03*
X139650000Y-58350000D03*
X116520000Y-118710000D03*
X115960000Y-158500000D03*
X87890000Y-113520000D03*
X68380000Y-98910000D03*
X88100000Y-133890000D03*
X64240000Y-118770000D03*
X109030000Y-134940000D03*
X76110000Y-158590000D03*
X96600000Y-98830000D03*
X95890000Y-139080000D03*
X139590000Y-71250000D03*
X61660000Y-153770000D03*
X108230000Y-113860000D03*
X108630000Y-94410000D03*
X76000000Y-138580000D03*
X96560000Y-118250000D03*
X107640000Y-153580000D03*
X117160000Y-139100000D03*
X61680000Y-133670000D03*
X88220000Y-93750000D03*
X75940000Y-118790000D03*
X117490000Y-98960000D03*
X70600000Y-98970000D03*
X87740000Y-153930000D03*
%TO.N,Net-(LED6-Pad2)*%
X96850000Y-120100000D03*
X104110000Y-118790000D03*
%TO.N,GND*%
X51590000Y-89520000D03*
X87600000Y-102340000D03*
X107700000Y-102600000D03*
X106870000Y-142040000D03*
X73900000Y-147990000D03*
X87720000Y-122670000D03*
X67730000Y-122080000D03*
X107620000Y-122680000D03*
X52780000Y-72670000D03*
X55840000Y-83820000D03*
X127420000Y-102270000D03*
X93950000Y-148450000D03*
X68410000Y-141490000D03*
X68310000Y-102110000D03*
X127590000Y-122640000D03*
X58820000Y-103960000D03*
X87620000Y-142600000D03*
X127190000Y-142330000D03*
X53890000Y-88730000D03*
%TO.N,Net-(LED5-Pad2)*%
X76530000Y-120850000D03*
X83010000Y-118910000D03*
%TO.N,Net-(LED10-Pad3)*%
X76530000Y-140960000D03*
X83350000Y-138930000D03*
%TO.N,Net-(LED3-Pad2)*%
X124250000Y-98960000D03*
X117310000Y-101260000D03*
%TO.N,Net-(LED2-Pad2)*%
X95240000Y-101610000D03*
X99780000Y-98520000D03*
%TO.N,Net-(LED1-Pad2)*%
X76340000Y-101120000D03*
X79730000Y-98760000D03*
%TO.N,Net-(LED11-Pad2)*%
X117290000Y-141630000D03*
X123510000Y-139060000D03*
%TO.N,RGBDATA_1*%
X45870000Y-52530000D03*
X66780000Y-99780000D03*
%TO.N,Net-(LED7-Pad2)*%
X117050000Y-120990000D03*
X123150000Y-118870000D03*
%TO.N,Net-(LED10-Pad2)*%
X96140000Y-141150000D03*
X103830000Y-138930000D03*
%TO.N,Net-(LED13-Pad2)*%
X83390000Y-159120000D03*
X76420000Y-160710000D03*
%TO.N,Net-(LED14-Pad2)*%
X95680000Y-161120000D03*
X103250000Y-159020000D03*
%TO.N,Net-(LED15-Pad2)*%
X123380000Y-158830000D03*
X116230000Y-161210000D03*
%TO.N,ROW_2*%
X84690000Y-108390000D03*
X124400000Y-108110000D03*
X129180000Y-101660000D03*
X117020000Y-108080000D03*
X76620000Y-107920000D03*
X63750000Y-60950000D03*
X134120000Y-99030000D03*
X136590000Y-97530000D03*
X130110000Y-81610000D03*
X96980000Y-108020000D03*
X134390000Y-85850000D03*
X103980000Y-108080000D03*
%TO.N,ROW_3*%
X76880000Y-128170000D03*
X116740000Y-128130000D03*
X104820000Y-128150000D03*
X132590000Y-124720000D03*
X97020000Y-128110000D03*
X83950000Y-128210000D03*
X128830000Y-126240000D03*
X124310000Y-128130000D03*
%TO.N,ROW_4*%
X124220000Y-148220000D03*
X96830000Y-148260000D03*
X128390000Y-142920000D03*
X84440000Y-148310000D03*
X117180000Y-148220000D03*
X76560000Y-148220000D03*
X131510000Y-141470000D03*
X104570000Y-148360000D03*
%TO.N,ROW_1*%
X76850000Y-88250000D03*
X84640000Y-88380000D03*
X116810000Y-88090000D03*
X123600000Y-88340000D03*
X104050000Y-88160000D03*
X96770000Y-88160000D03*
%TO.N,LCD_SD(MOSI)*%
X137090000Y-61120000D03*
X100960000Y-59160000D03*
%TO.N,LCD_SCK*%
X98780000Y-57870000D03*
X135670000Y-56620000D03*
%TO.N,COL_1*%
X83770000Y-77440000D03*
X69510000Y-123420000D03*
X69800000Y-142750000D03*
X69650000Y-108860000D03*
X69510000Y-128990000D03*
X82730000Y-40410000D03*
X69810000Y-148240000D03*
X71590000Y-87220000D03*
X69650000Y-103260000D03*
X71590000Y-84630000D03*
%TO.N,COL_2*%
X89660000Y-128040000D03*
X91230000Y-85180000D03*
X90030000Y-108690000D03*
X89810000Y-42300000D03*
X89770000Y-143220000D03*
X90010000Y-102290000D03*
X89590000Y-122570000D03*
X91220000Y-80020000D03*
X91260000Y-90790000D03*
X89810000Y-148240000D03*
%TO.N,COL_3*%
X110060000Y-108640000D03*
X110750000Y-84880000D03*
X110540000Y-143100000D03*
X117890000Y-79670000D03*
X110750000Y-90620000D03*
X110110000Y-128530000D03*
X110120000Y-102730000D03*
X110130000Y-123300000D03*
X117830000Y-64820000D03*
X110530000Y-149020000D03*
%TO.N,COL_4*%
X122700000Y-74170000D03*
X122610000Y-80500000D03*
%TO.N,ENC_A*%
X61550000Y-73000000D03*
X59610000Y-60210000D03*
%TO.N,LCD_CS*%
X64540000Y-66720000D03*
X101080000Y-68030000D03*
X51320000Y-61200000D03*
X59260000Y-63160000D03*
X130430000Y-64070000D03*
X68570000Y-67950000D03*
%TO.N,LCD_RESET*%
X49530000Y-63130000D03*
X106680000Y-65390000D03*
X131920000Y-59800000D03*
X70830000Y-69790000D03*
%TO.N,LCD_DC*%
X70760000Y-71120000D03*
X108480000Y-67080000D03*
X137530000Y-64640000D03*
X46740000Y-64300000D03*
%TD*%
D21*
%TO.N,+3V3*%
X75920000Y-118770000D02*
X75940000Y-118790000D01*
X114950000Y-132740000D02*
X114950000Y-138380000D01*
X111040000Y-153580000D02*
X113265000Y-155805000D01*
X134400000Y-142800000D02*
X127940000Y-149260000D01*
X88220000Y-93750000D02*
X91520000Y-93750000D01*
X139590000Y-58410000D02*
X139650000Y-58350000D01*
X61680000Y-133670000D02*
X71090000Y-133670000D01*
X142010000Y-76450000D02*
X129960000Y-88500000D01*
X112470000Y-138380000D02*
X114950000Y-138380000D01*
X125280000Y-88500000D02*
X129940000Y-88500000D01*
X135100000Y-125010000D02*
X131030000Y-129080000D01*
X131000000Y-129080000D02*
X134400000Y-132480000D01*
X135100000Y-113810000D02*
X135100000Y-125010000D01*
X109030000Y-134940000D02*
X112470000Y-138380000D01*
X119810000Y-149260000D02*
X113265000Y-155805000D01*
X70540000Y-98910000D02*
X70600000Y-98970000D01*
X91830000Y-113520000D02*
X96560000Y-118250000D01*
X116170000Y-109360000D02*
X111670000Y-113860000D01*
X128090000Y-129080000D02*
X131000000Y-129080000D01*
X108230000Y-113860000D02*
X111670000Y-113860000D01*
X124100000Y-89680000D02*
X125280000Y-88500000D01*
X111670000Y-113860000D02*
X116520000Y-118710000D01*
X115790000Y-89680000D02*
X124100000Y-89680000D01*
X131030000Y-129080000D02*
X128090000Y-129080000D01*
X130790000Y-109360000D02*
X127130000Y-109360000D01*
X128090000Y-129080000D02*
X118610000Y-129080000D01*
X139590000Y-71250000D02*
X139590000Y-58410000D01*
X117030000Y-98910000D02*
X117440000Y-98910000D01*
X129960000Y-88500000D02*
X129940000Y-88500000D01*
X91520000Y-93750000D02*
X96600000Y-98830000D01*
X87890000Y-113520000D02*
X91830000Y-113520000D01*
X64240000Y-118770000D02*
X75920000Y-118770000D01*
X61660000Y-153770000D02*
X71290000Y-153770000D01*
X142010000Y-74880000D02*
X142010000Y-76450000D01*
X118610000Y-129080000D02*
X114950000Y-132740000D01*
X127940000Y-149260000D02*
X119810000Y-149260000D01*
X127130000Y-109360000D02*
X130650000Y-109360000D01*
X127130000Y-109360000D02*
X116170000Y-109360000D01*
X117160000Y-139060000D02*
X117160000Y-139100000D01*
X87740000Y-153930000D02*
X90430000Y-153930000D01*
X71290000Y-153770000D02*
X76110000Y-158590000D01*
X88100000Y-133890000D02*
X93290000Y-139080000D01*
X129940000Y-88500000D02*
X135270000Y-93830000D01*
X130650000Y-109360000D02*
X135100000Y-113810000D01*
X68380000Y-98910000D02*
X70540000Y-98910000D01*
X113130000Y-98910000D02*
X117030000Y-98910000D01*
X90430000Y-153930000D02*
X95930000Y-159430000D01*
X135270000Y-93830000D02*
X135270000Y-104880000D01*
X114950000Y-138380000D02*
X116480000Y-138380000D01*
X135270000Y-104880000D02*
X130790000Y-109360000D01*
X107640000Y-153580000D02*
X111040000Y-153580000D01*
X108630000Y-94410000D02*
X113130000Y-98910000D01*
X71090000Y-133670000D02*
X76000000Y-138580000D01*
X113265000Y-155805000D02*
X115960000Y-158500000D01*
X93290000Y-139080000D02*
X95890000Y-139080000D01*
X116480000Y-138380000D02*
X117160000Y-139060000D01*
X117440000Y-98910000D02*
X117490000Y-98960000D01*
X134400000Y-132480000D02*
X134400000Y-142800000D01*
%TO.N,Net-(LED6-Pad2)*%
X96850000Y-120100000D02*
X98160000Y-118790000D01*
X98160000Y-118790000D02*
X104110000Y-118790000D01*
%TO.N,GND*%
X88980000Y-141240000D02*
X92510000Y-141240000D01*
X86720000Y-143500000D02*
X87620000Y-142600000D01*
X66460000Y-103960000D02*
X68310000Y-102110000D01*
X76620000Y-123840000D02*
X85470000Y-123840000D01*
X113490000Y-120480000D02*
X115630000Y-122620000D01*
X114660000Y-101150000D02*
X116430000Y-102920000D01*
X87620000Y-142600000D02*
X88980000Y-141240000D01*
X76650000Y-143500000D02*
X86720000Y-143500000D01*
X106650000Y-123650000D02*
X97060000Y-123650000D01*
X126390000Y-123840000D02*
X127590000Y-122640000D01*
X86150000Y-103790000D02*
X87600000Y-102340000D01*
X72800000Y-121000000D02*
X73780000Y-121000000D01*
X107620000Y-122680000D02*
X106650000Y-123650000D01*
X106870000Y-142440000D02*
X106870000Y-142040000D01*
X107620000Y-121650000D02*
X108790000Y-120480000D01*
X92510000Y-141240000D02*
X93290000Y-141240000D01*
X95800000Y-146600000D02*
X95800000Y-143750000D01*
X52780000Y-72670000D02*
X52780000Y-80760000D01*
X67730000Y-122080000D02*
X71720000Y-122080000D01*
X92700000Y-100980000D02*
X95500000Y-103780000D01*
X68410000Y-141490000D02*
X74640000Y-141490000D01*
X95800000Y-143750000D02*
X105560000Y-143750000D01*
X115630000Y-122620000D02*
X116850000Y-123840000D01*
X88430000Y-120410000D02*
X87720000Y-121120000D01*
X108790000Y-120480000D02*
X113490000Y-120480000D01*
X105660000Y-143650000D02*
X106870000Y-142440000D01*
X106870000Y-142040000D02*
X113920000Y-142040000D01*
X95500000Y-103780000D02*
X105070000Y-103780000D01*
X93950000Y-148450000D02*
X95800000Y-146600000D01*
X74640000Y-141490000D02*
X76650000Y-143500000D01*
X52380000Y-88730000D02*
X51590000Y-89520000D01*
X76100000Y-123320000D02*
X76620000Y-123840000D01*
X115160000Y-143280000D02*
X126240000Y-143280000D01*
X78780000Y-103790000D02*
X86150000Y-103790000D01*
X105070000Y-103780000D02*
X106520000Y-103780000D01*
X105560000Y-143750000D02*
X105660000Y-143650000D01*
X106520000Y-103780000D02*
X107700000Y-102600000D01*
X52780000Y-80760000D02*
X55840000Y-83820000D01*
X107700000Y-102600000D02*
X109150000Y-101150000D01*
X93820000Y-120410000D02*
X88430000Y-120410000D01*
X86550000Y-123840000D02*
X87720000Y-122670000D01*
X87600000Y-102340000D02*
X88960000Y-100980000D01*
X73900000Y-147990000D02*
X76650000Y-145240000D01*
X87720000Y-121120000D02*
X87720000Y-122670000D01*
X125170000Y-103520000D02*
X126170000Y-103520000D01*
X76650000Y-145240000D02*
X76650000Y-143500000D01*
X117030000Y-103520000D02*
X125170000Y-103520000D01*
X116430000Y-102920000D02*
X117030000Y-103520000D01*
X126240000Y-143280000D02*
X127190000Y-142330000D01*
X85470000Y-123840000D02*
X86550000Y-123840000D01*
X113920000Y-142040000D02*
X115160000Y-143280000D01*
X53890000Y-88730000D02*
X52380000Y-88730000D01*
X77100000Y-102110000D02*
X78780000Y-103790000D01*
X93290000Y-141240000D02*
X95800000Y-143750000D01*
X126170000Y-103520000D02*
X127420000Y-102270000D01*
X113900000Y-101150000D02*
X114660000Y-101150000D01*
X109150000Y-101150000D02*
X113900000Y-101150000D01*
X97060000Y-123650000D02*
X93820000Y-120410000D01*
X88960000Y-100980000D02*
X92700000Y-100980000D01*
X73780000Y-121000000D02*
X76100000Y-123320000D01*
X58820000Y-103960000D02*
X66460000Y-103960000D01*
X71720000Y-122080000D02*
X72800000Y-121000000D01*
X125990000Y-123840000D02*
X126390000Y-123840000D01*
X116850000Y-123840000D02*
X125990000Y-123840000D01*
X107620000Y-122680000D02*
X107620000Y-121650000D01*
X68310000Y-102110000D02*
X77100000Y-102110000D01*
%TO.N,Net-(LED5-Pad2)*%
X78470000Y-118910000D02*
X83010000Y-118910000D01*
X76530000Y-120850000D02*
X78470000Y-118910000D01*
%TO.N,Net-(LED10-Pad3)*%
X78560000Y-138930000D02*
X83350000Y-138930000D01*
X76530000Y-140960000D02*
X78560000Y-138930000D01*
%TO.N,Net-(LED3-Pad2)*%
X117310000Y-101260000D02*
X119610000Y-98960000D01*
X119610000Y-98960000D02*
X124250000Y-98960000D01*
%TO.N,Net-(LED2-Pad2)*%
X95240000Y-101610000D02*
X98330000Y-98520000D01*
X98330000Y-98520000D02*
X99780000Y-98520000D01*
%TO.N,Net-(LED1-Pad2)*%
X77370000Y-101120000D02*
X79730000Y-98760000D01*
X76340000Y-101120000D02*
X77370000Y-101120000D01*
%TO.N,Net-(LED11-Pad2)*%
X119860000Y-139060000D02*
X123510000Y-139060000D01*
X117290000Y-141630000D02*
X119860000Y-139060000D01*
%TO.N,RGBDATA_1*%
X55430000Y-87000000D02*
X55430000Y-97460000D01*
X44600000Y-53800000D02*
X44600000Y-76170000D01*
X56950000Y-98980000D02*
X65980000Y-98980000D01*
X55430000Y-97460000D02*
X56950000Y-98980000D01*
X44600000Y-76170000D02*
X55430000Y-87000000D01*
X45870000Y-52530000D02*
X44600000Y-53800000D01*
X65980000Y-98980000D02*
X66780000Y-99780000D01*
%TO.N,Net-(LED7-Pad2)*%
X117050000Y-120990000D02*
X119170000Y-118870000D01*
X119170000Y-118870000D02*
X123150000Y-118870000D01*
%TO.N,Net-(LED10-Pad2)*%
X96140000Y-141150000D02*
X98360000Y-138930000D01*
X98360000Y-138930000D02*
X103830000Y-138930000D01*
%TO.N,Net-(LED13-Pad2)*%
X78010000Y-159120000D02*
X83390000Y-159120000D01*
X76420000Y-160710000D02*
X78010000Y-159120000D01*
%TO.N,Net-(LED14-Pad2)*%
X95680000Y-161120000D02*
X97780000Y-159020000D01*
X97780000Y-159020000D02*
X103250000Y-159020000D01*
%TO.N,Net-(LED15-Pad2)*%
X116230000Y-161210000D02*
X118610000Y-158830000D01*
X118610000Y-158830000D02*
X123380000Y-158830000D01*
%TO.N,ROW_2*%
X136590000Y-97530000D02*
X136590000Y-88050000D01*
X96980000Y-108020000D02*
X103920000Y-108020000D01*
X77090000Y-108390000D02*
X84690000Y-108390000D01*
X130110000Y-81610000D02*
X84410000Y-81610000D01*
X103920000Y-108020000D02*
X103980000Y-108080000D01*
X76620000Y-107920000D02*
X77090000Y-108390000D01*
X136590000Y-88050000D02*
X134390000Y-85850000D01*
X129180000Y-101660000D02*
X131490000Y-101660000D01*
X124370000Y-108080000D02*
X124400000Y-108110000D01*
X131490000Y-101660000D02*
X134120000Y-99030000D01*
X84410000Y-81610000D02*
X63750000Y-60950000D01*
X117020000Y-108080000D02*
X124370000Y-108080000D01*
%TO.N,ROW_3*%
X116740000Y-128130000D02*
X124310000Y-128130000D01*
X97020000Y-128110000D02*
X104780000Y-128110000D01*
X104780000Y-128110000D02*
X104820000Y-128150000D01*
X132590000Y-124720000D02*
X131050000Y-126260000D01*
X76880000Y-128170000D02*
X83910000Y-128170000D01*
X128850000Y-126260000D02*
X128830000Y-126240000D01*
X131050000Y-126260000D02*
X128850000Y-126260000D01*
X83910000Y-128170000D02*
X83950000Y-128210000D01*
%TO.N,ROW_4*%
X84350000Y-148220000D02*
X84440000Y-148310000D01*
X117180000Y-148220000D02*
X124220000Y-148220000D01*
X104470000Y-148260000D02*
X104570000Y-148360000D01*
X130060000Y-142920000D02*
X131510000Y-141470000D01*
X76560000Y-148220000D02*
X84350000Y-148220000D01*
X96830000Y-148260000D02*
X104470000Y-148260000D01*
X128390000Y-142920000D02*
X130060000Y-142920000D01*
%TO.N,ROW_1*%
X96770000Y-88160000D02*
X104050000Y-88160000D01*
X117060000Y-88340000D02*
X123600000Y-88340000D01*
X76850000Y-88250000D02*
X84510000Y-88250000D01*
X84510000Y-88250000D02*
X84640000Y-88380000D01*
X116810000Y-88090000D02*
X117060000Y-88340000D01*
%TO.N,LCD_SD(MOSI)*%
X101900000Y-58220000D02*
X134190000Y-58220000D01*
X134190000Y-58220000D02*
X137090000Y-61120000D01*
X100960000Y-59160000D02*
X101900000Y-58220000D01*
%TO.N,LCD_SCK*%
X135670000Y-56620000D02*
X135610000Y-56560000D01*
X100090000Y-56560000D02*
X98780000Y-57870000D01*
X135610000Y-56560000D02*
X100090000Y-56560000D01*
%TO.N,COL_1*%
X69700000Y-108810000D02*
X69650000Y-108860000D01*
X82730000Y-40410000D02*
X83870000Y-41550000D01*
X83870000Y-77340000D02*
X83770000Y-77440000D01*
X71590000Y-84630000D02*
X71590000Y-87220000D01*
X69650000Y-103260000D02*
X69700000Y-103310000D01*
X69510000Y-123420000D02*
X69510000Y-128990000D01*
X69700000Y-103310000D02*
X69700000Y-108810000D01*
X69800000Y-142750000D02*
X69810000Y-142760000D01*
X69810000Y-142760000D02*
X69810000Y-148240000D01*
X83870000Y-41550000D02*
X83870000Y-77340000D01*
%TO.N,COL_2*%
X89590000Y-122570000D02*
X89590000Y-127970000D01*
X91230000Y-85180000D02*
X91230000Y-90760000D01*
X90030000Y-102310000D02*
X90030000Y-108690000D01*
X91230000Y-90760000D02*
X91260000Y-90790000D01*
X89590000Y-127970000D02*
X89660000Y-128040000D01*
X91220000Y-43710000D02*
X91220000Y-80020000D01*
X89810000Y-143260000D02*
X89810000Y-148240000D01*
X90010000Y-102290000D02*
X90030000Y-102310000D01*
X89770000Y-143220000D02*
X89810000Y-143260000D01*
X89810000Y-42300000D02*
X91220000Y-43710000D01*
%TO.N,COL_3*%
X110120000Y-102730000D02*
X110130000Y-102740000D01*
X110530000Y-143110000D02*
X110530000Y-149020000D01*
X110130000Y-108570000D02*
X110060000Y-108640000D01*
X117830000Y-79610000D02*
X117890000Y-79670000D01*
X110130000Y-102740000D02*
X110130000Y-108570000D01*
X110750000Y-84880000D02*
X110750000Y-90620000D01*
X110540000Y-143100000D02*
X110530000Y-143110000D01*
X117830000Y-64820000D02*
X117830000Y-79610000D01*
X110150000Y-128490000D02*
X110110000Y-128530000D01*
X110150000Y-123320000D02*
X110150000Y-128490000D01*
X110130000Y-123300000D02*
X110150000Y-123320000D01*
%TO.N,COL_4*%
X122700000Y-80410000D02*
X122610000Y-80500000D01*
X122700000Y-74170000D02*
X122700000Y-80410000D01*
%TO.N,ENC_A*%
X60640000Y-61960000D02*
X59610000Y-60930000D01*
X59610000Y-60930000D02*
X59610000Y-60210000D01*
X60640000Y-72090000D02*
X60640000Y-61960000D01*
X61550000Y-73000000D02*
X60640000Y-72090000D01*
%TO.N,LCD_CS*%
X129130000Y-62770000D02*
X117220000Y-62770000D01*
X111200000Y-68790000D02*
X105270000Y-68790000D01*
X64540000Y-66720000D02*
X65770000Y-67950000D01*
X105270000Y-68790000D02*
X104510000Y-68030000D01*
X130430000Y-64070000D02*
X129130000Y-62770000D01*
X51320000Y-61200000D02*
X53280000Y-63160000D01*
X117220000Y-62770000D02*
X111200000Y-68790000D01*
X104510000Y-68030000D02*
X101080000Y-68030000D01*
X65770000Y-67950000D02*
X68570000Y-67950000D01*
X53280000Y-63160000D02*
X59260000Y-63160000D01*
%TO.N,LCD_RESET*%
X70490000Y-69790000D02*
X64750000Y-75530000D01*
X50150000Y-63750000D02*
X49530000Y-63130000D01*
X131920000Y-59800000D02*
X131800000Y-59920000D01*
X70830000Y-69790000D02*
X70490000Y-69790000D01*
X112150000Y-59920000D02*
X106680000Y-65390000D01*
X59790000Y-75530000D02*
X50150000Y-65890000D01*
X64750000Y-75530000D02*
X59790000Y-75530000D01*
X50150000Y-65890000D02*
X50150000Y-63750000D01*
X131800000Y-59920000D02*
X112150000Y-59920000D01*
%TO.N,LCD_DC*%
X58870000Y-76430000D02*
X65450000Y-76430000D01*
X46740000Y-64300000D02*
X58870000Y-76430000D01*
X114250000Y-61310000D02*
X108480000Y-67080000D01*
X65450000Y-76430000D02*
X70760000Y-71120000D01*
X134360000Y-61310000D02*
X114250000Y-61310000D01*
X137530000Y-64480000D02*
X134360000Y-61310000D01*
X137530000Y-64640000D02*
X137530000Y-64480000D01*
%TD*%
M02*
